<svg xmlns="http://www.w3.org/2000/svg" width="439.762" height="447.12" viewBox="0 0 439.762 447.12">
  <g id="Forgot_password-pana" data-name="Forgot password-pana" transform="translate(-41.536 -46.84)">
    <g id="freepik--background-complete--inject-4" transform="translate(58.097 52.534)">
      <path id="Path_23063" data-name="Path 23063" d="M191.045,230.635a24.362,24.362,0,1,0-.288-38.231h0l-5.334-4.119-7.939,2.481.906-7.939-6.693-5.2-7.928,2.471.906-7.939-5.756-4.469-4.839,1.5.556-4.839-3.388-2.636-7.6.741-1.03,11.676,39.807,30.941a24.382,24.382,0,0,0,8.618,25.556Zm29.006-8.309a6.981,6.981,0,1,1-1.236-9.8A6.981,6.981,0,0,1,220.05,222.326Z" transform="translate(-55.099 -49.127)" fill="#ebebeb"/>
      <path id="Path_23064" data-name="Path 23064" d="M221.887,138.884a13.046,13.046,0,1,0-20.47-.35h0l-2.3,2.8,1.225,4.283-4.242-.587-2.852,3.521,1.225,4.283-4.232-.6-2.471,3.027.741,2.605-2.584-.36-1.431,1.761.3,4.119,6.24.7,17.072-20.912a13.056,13.056,0,0,0,13.777-4.294Zm-4.119-15.63a4.827,4.827,0,1,1,.041,0Z" transform="translate(-53.857 -50.436)" fill="#ebebeb"/>
      <path id="Path_23065" data-name="Path 23065" d="M170.559,52.37v75.557H62.022L58.12,52.9Z" transform="translate(-57.605 -52.37)" fill="#e0e0e0"/>
      <rect id="Rectangle_2903" data-name="Rectangle 2903" width="74.877" height="108.537" transform="translate(0.515 75.402) rotate(-90)" fill="#fff"/>
      <path id="Path_23066" data-name="Path 23066" d="M167.155,128.287H57.62V52.38H167.155Zm-108.526-1.03h107.5V53.41H58.65Z" transform="translate(-57.62 -52.37)" fill="#e0e0e0"/>
      <rect id="Rectangle_2904" data-name="Rectangle 2904" width="85.019" height="56.271" transform="translate(12.263 9.823)" fill="#fff"/>
      <path id="Path_23067" data-name="Path 23067" d="M154.571,61.917h-1.637l-4.654.093h-17.5l-61.2.124.247-.247v56.271h0l-.268-.268,85.029.062-.216.206c0-17.123.082-31.158.113-40.939,0-4.891,0-8.7.051-11.326V77.177c0,9.813.072,23.9.113,41.073v.216H69.14v-.278h0V61.67h.247l61.368.124,17.5.072h5.807Z" transform="translate(-57.278 -52.094)" fill="#e0e0e0"/>
      <path id="Path_23068" data-name="Path 23068" d="M58.11,52.67a9.453,9.453,0,0,1,1.874,1.215c1.112.8,2.615,1.936,4.252,3.243s3.089,2.543,4.119,3.47a8.989,8.989,0,0,1,1.555,1.586c-.1.113-2.708-2.059-5.972-4.633A60.924,60.924,0,0,1,58.11,52.67Z" transform="translate(-57.605 -52.361)" fill="#e0e0e0"/>
      <path id="Path_23069" data-name="Path 23069" d="M163.858,52.88a53.541,53.541,0,0,1-5.684,4.86,53.716,53.716,0,0,1-6.044,4.438,53.545,53.545,0,0,1,5.7-4.86,53.131,53.131,0,0,1,6.024-4.438Z" transform="translate(-54.817 -52.355)" fill="#e0e0e0"/>
      <path id="Path_23070" data-name="Path 23070" d="M163.789,125.893l-12.1-9.813" transform="translate(-54.83 -50.48)" fill="#fff"/>
      <path id="Path_23071" data-name="Path 23071" d="M151.69,116.08a57.666,57.666,0,0,1,6.178,4.7,58.753,58.753,0,0,1,5.879,5.148,56.55,56.55,0,0,1-6.178-4.7,54.57,54.57,0,0,1-5.879-5.148Z" transform="translate(-54.83 -50.48)" fill="#e0e0e0"/>
      <path id="Path_23072" data-name="Path 23072" d="M58.11,125.865a52.307,52.307,0,0,1,5.653-4.809,53.153,53.153,0,0,1,5.982-4.4,49.763,49.763,0,0,1-5.643,4.819,52.238,52.238,0,0,1-5.993,4.386Z" transform="translate(-57.605 -50.463)" fill="#e0e0e0"/>
      <rect id="Rectangle_2905" data-name="Rectangle 2905" width="18.843" height="53.501" transform="translate(29.531 46.201) rotate(-90)" fill="#e0e0e0"/>
    </g>
    <g id="freepik--Floor--inject-4" transform="translate(45.484 481.46)">
      <path id="Path_23073" data-name="Path 23073" d="M440.379,469.208c0,.144-88.427.268-197.489.268s-197.52-.124-197.52-.268,88.417-.268,197.52-.268S440.379,469.064,440.379,469.208Z" transform="translate(-45.37 -468.94)" fill="#263238"/>
    </g>
    <g id="freepik--Character--inject-4" transform="translate(55.275 220.085)">
      <path id="Path_23074" data-name="Path 23074" d="M348.79,433.024l25.484,37.057,9.112.216-16.7-38.108Z" transform="translate(-46.162 -208.655)" fill="#263238"/>
      <path id="Path_23075" data-name="Path 23075" d="M88.007,434.83,74.58,469.838h6.713l23.445-34.854Z" transform="translate(-54.295 -208.577)" fill="#263238"/>
      <path id="Path_23076" data-name="Path 23076" d="M82,312.6l1.03,45.305a11.965,11.965,0,0,0,11.7,11.707l253.492,5.643a11.975,11.975,0,0,0,12.243-11.975V308.709a32.239,32.239,0,0,0-27.8-31.919c-46.407-6.384-142.093-16.2-219.472-2.255A37.861,37.861,0,0,0,82,312.6Z" transform="translate(-54.075 -213.542)" fill="#1550a2"/>
      <path id="Path_23077" data-name="Path 23077" d="M81.692,326.819s-20.882-9.669-25.155,0,.525,21.53,5.22,28.141,4.675,88.283,4.675,88.283l316.7-3.388,3.748-78.532s15.187-18.709,14.24-26.771-13.767-19.8-28.48-7.764S354.11,363.98,354.11,363.98l-252.5,1.9S102.471,330.557,81.692,326.819Z" transform="translate(-54.88 -211.934)" fill="#1550a2"/>
      <path id="Path_23078" data-name="Path 23078" d="M349.6,378.008c0,.144-56.106.268-125.3.268S99,378.183,99,378.008s56.086-.268,125.3-.268S349.6,377.884,349.6,378.008Z" transform="translate(-53.571 -210.27)" fill="#263238"/>
      <path id="Path_23079" data-name="Path 23079" d="M99.577,414.136a.772.772,0,0,1,0-.247v-.731q0-.968-.062-2.811v-10.3c0-8.711.062-20.748-.34-33.979a144.427,144.427,0,0,0-1.442-18.616c-.185-.68-.371-1.359-.546-2.059a12.64,12.64,0,0,0-.783-1.915c-.546-1.246-1.1-2.44-1.709-3.563A37.951,37.951,0,0,0,90.846,334a27.491,27.491,0,0,0-4.119-4.119,22.377,22.377,0,0,0-3.7-2.389,37.393,37.393,0,0,0-3.491-1.4h.237l.71.2a15.208,15.208,0,0,1,2.636,1.03,20.3,20.3,0,0,1,3.789,2.337,26.874,26.874,0,0,1,4.2,4.119,37.314,37.314,0,0,1,3.954,5.951c.628,1.133,1.194,2.327,1.75,3.583.278.628.535,1.277.793,1.925l.587,2.059A139.006,139.006,0,0,1,99.69,366c.4,13.283.268,25.319.185,34.03-.062,4.314-.113,7.825-.144,10.3v3.532C99.577,414.044,99.577,414.136,99.577,414.136Z" transform="translate(-54.148 -211.802)" fill="#263238"/>
      <path id="Path_23080" data-name="Path 23080" d="M78.61,344.385a1.483,1.483,0,0,1,.834-.257,3.542,3.542,0,0,1,2.327.649,3.624,3.624,0,0,1,1.133,1.287,3.14,3.14,0,0,1,.3,1.956,3.841,3.841,0,0,1-2.955,3.192,3.913,3.913,0,0,1-3.913-1.864,3.542,3.542,0,0,1-.5-1.915,3.954,3.954,0,0,1,2.234-3.357,1.8,1.8,0,0,1,.855-.216c0,.051-.3.124-.762.4a3.964,3.964,0,0,0-1.493,1.668,3.171,3.171,0,0,0,.124,3.089,3.46,3.46,0,0,0,3.4,1.6,3.388,3.388,0,0,0,2.564-2.708,2.914,2.914,0,0,0-1.174-2.852,3.46,3.46,0,0,0-2.059-.752A7.269,7.269,0,0,1,78.61,344.385Z" transform="translate(-54.258 -211.275)" fill="#263238"/>
      <path id="Path_23081" data-name="Path 23081" d="M80,364.505a4.87,4.87,0,0,1-1.431-1.689,10.122,10.122,0,0,1-.124-10.3,5.015,5.015,0,0,1,1.39-1.73c.072.062-.463.71-1.03,1.9a10.945,10.945,0,0,0-1.153,4.984,11.069,11.069,0,0,0,1.266,4.963C79.52,363.815,80.086,364.454,80,364.505Z" transform="translate(-54.221 -211.069)" fill="#263238"/>
      <path id="Path_23082" data-name="Path 23082" d="M76.729,334.42a8.691,8.691,0,0,1-.309,1.544,9.493,9.493,0,0,0,1.5,7.074,11.721,11.721,0,0,1,.916,1.277,4.543,4.543,0,0,1-1.225-1.03,8.33,8.33,0,0,1-1.606-7.414,3.285,3.285,0,0,1,.721-1.452Z" transform="translate(-54.261 -211.555)" fill="#263238"/>
      <path id="Path_23083" data-name="Path 23083" d="M70.71,345.48c.124-.1,1.081.865,2.543,1.617s2.79,1.03,2.77,1.153a4.52,4.52,0,0,1-3.017-.68,4.6,4.6,0,0,1-2.3-2.09Z" transform="translate(-54.41 -211.227)" fill="#263238"/>
      <path id="Path_23084" data-name="Path 23084" d="M384.051,411.608c0,.144-71.428.268-159.536.268S65,411.752,65,411.608s71.417-.268,159.6-.268S384.051,411.453,384.051,411.608Z" transform="translate(-54.579 -209.273)" fill="#263238"/>
      <path id="Path_23085" data-name="Path 23085" d="M341.318,363.05c.154,0,.268,11.182.268,24.969s-.113,24.99-.268,24.99-.268-11.182-.268-24.99S341.174,363.05,341.318,363.05Z" transform="translate(-46.392 -210.706)" fill="#263238"/>
      <path id="Path_23086" data-name="Path 23086" d="M243.037,279.143h-.494l-1.442.051-5.529.154-20.367.474-67.175,1.349c-6.559.154-12.974.134-19.131.546a64.609,64.609,0,0,0-17.432,3.182,30.766,30.766,0,0,0-13.2,8.721,29.058,29.058,0,0,0-4.119,5.972,38.158,38.158,0,0,0-2.523,6.178A58.317,58.317,0,0,0,89.566,317.1c-.319,3.4-.35,6.332-.371,8.742s0,4.263.072,5.529v1.441a10.331,10.331,0,0,0-.082-1.441c-.062-1.256-.144-3.089-.165-5.529s0-5.354.278-8.773a58.217,58.217,0,0,1,2.059-11.44,38.694,38.694,0,0,1,2.512-6.291,28.974,28.974,0,0,1,4.119-6.1,31.188,31.188,0,0,1,13.386-8.855,64.25,64.25,0,0,1,17.5-3.243c6.178-.412,12.6-.4,19.162-.556l67.185-1.194,20.356-.3,5.54-.062h1.442Z" transform="translate(-53.867 -213.198)" fill="#263238"/>
      <path id="Path_23087" data-name="Path 23087" d="M159.952,313.41a5.7,5.7,0,0,0-.865.566,4.705,4.705,0,0,0-1.6,2.234,3.954,3.954,0,0,0,.566,3.82,4.119,4.119,0,0,0,7.527-1.792,4,4,0,0,0-1.215-3.676,4.737,4.737,0,0,0-2.43-1.266c-.649-.113-1.03-.072-1.03-.113a1.987,1.987,0,0,1,1.03-.093,4.8,4.8,0,0,1,3.861,2.873,4.242,4.242,0,0,1,.237,2.368,4.644,4.644,0,0,1-8.4,2,4.263,4.263,0,0,1-.855-2.214,4.778,4.778,0,0,1,.319-2.059,4.664,4.664,0,0,1,1.833-2.276A2.059,2.059,0,0,1,159.952,313.41Z" transform="translate(-51.858 -212.189)" fill="#263238"/>
      <path id="Path_23088" data-name="Path 23088" d="M155.682,339.822a12.459,12.459,0,0,1-.783-3.089,17.5,17.5,0,0,1,.165-7.6,10.4,10.4,0,0,1,4.438-6.116,6.95,6.95,0,0,1,2.152-.875,2.059,2.059,0,0,1,.844-.082,13.15,13.15,0,0,0-2.8,1.277,10.565,10.565,0,0,0-4.119,5.941,19.224,19.224,0,0,0-.309,7.393C155.518,338.628,155.765,339.8,155.682,339.822Z" transform="translate(-51.923 -211.922)" fill="#263238"/>
      <path id="Path_23089" data-name="Path 23089" d="M159.381,298a24.126,24.126,0,0,0-1.514,2.265,9.02,9.02,0,0,0,2.646,11.615,22.382,22.382,0,0,0,2.358,1.39,1.9,1.9,0,0,1-.741-.154,7.991,7.991,0,0,1-1.833-.927,8.958,8.958,0,0,1-2.77-12.129,7.845,7.845,0,0,1,1.256-1.627C159.133,298.073,159.36,297.928,159.381,298Z" transform="translate(-51.873 -212.636)" fill="#263238"/>
      <path id="Path_23090" data-name="Path 23090" d="M158.681,318a51.784,51.784,0,0,0-5.581,1.256,53.45,53.45,0,0,0-5.21,2.368A14.9,14.9,0,0,1,158.681,318Z" transform="translate(-52.121 -212.043)" fill="#263238"/>
      <g id="Group_10232" data-name="Group 10232" transform="translate(73.292 155.693)" opacity="0.3">
        <path id="Path_23091" data-name="Path 23091" d="M126.06,379.315a51.751,51.751,0,0,0,35.008,10.554q-3.913,18.153-7.8,36.316c-.69,3.223-1.339,6.816.35,9.658,2.368,3.985,7.877,4.376,12.51,4.314,5.148-.072,10.523-.2,15.095-2.584,6.477-3.377,9.957-10.544,12.469-17.4s4.685-14.209,9.854-19.368a40.157,40.157,0,0,0,22.807,12.984c2.574.474,5.5.618,7.558-1.03s2.646-4.551,2.121-7.1a21.314,21.314,0,0,0-3.367-6.991l-15.074-23.373c-2.059-3.161-4.263-6.5-7.712-8-2.708-1.184-5.776-1.03-8.721-.9a402.505,402.505,0,0,0-72.972,11.028" transform="translate(-126.06 -366.302)"/>
      </g>
      <g id="Group_10233" data-name="Group 10233" transform="translate(51.961 51.829)" opacity="0.3">
        <path id="Path_23092" data-name="Path 23092" d="M207.215,266.429c-6.1,16.1-28.831,19.8-36.852,35.008-7.9,15.074,1.895,35.008-6.24,50-3.017,5.54-8.237,9.669-11.141,15.249-1.977,3.748-3,8.237-6.178,11.007-3.727,3.243-9.5,3.182-13.983,1.081s-7.918-5.869-11.11-9.648c-5.972-7.084-11.584-14.745-14.415-23.59-4.8-15.208-.391-32.414,9.267-45.12s23.96-21.283,39.065-26.421,31.085-7.074,46.973-8.567" transform="translate(-105.344 -265.43)"/>
      </g>
      <path id="Path_23093" data-name="Path 23093" d="M133.18,225.572a25.021,25.021,0,0,1,9.267-8.556,16.392,16.392,0,0,1,12.356-1.246,12.273,12.273,0,0,1,8.237,8.9c.649,3.305-.237,6.991,1.472,9.9,1.956,3.336,6.682,4.386,8.351,7.887a7.609,7.609,0,0,1-.5,6.724,20.912,20.912,0,0,1-4.52,5.292A11.069,11.069,0,0,1,170.66,257a3.841,3.841,0,0,1,.6,3.6,5.292,5.292,0,0,1-3.089,2.471,30.427,30.427,0,0,1-18.215,1.709c-1.627-.35-3.491-.793-4.829.2" transform="translate(-52.557 -215.094)" fill="#263238"/>
      <path id="Path_23094" data-name="Path 23094" d="M173.531,237.336l-3.305,10.08,22.508,12.778-22.653.731,1.689,18.359,43.606-10.708s2.615-17.782-41.845-31.24l-3.089-.741a3.532,3.532,0,0,1-2.481-2.152h0a3.82,3.82,0,0,0-1.853-1.987l-3.717-1.936v2.945l2.059,2.4-.329,5.694a5.148,5.148,0,0,0,3.954,5.375l2.059.484" transform="translate(-51.691 -214.637)" fill="#b78876"/>
      <path id="Path_23095" data-name="Path 23095" d="M126.057,272.928c-.9,0-9.205,2.059-13.962,8.073S100.46,309.77,100.46,309.77l17.5,3.027,7.558,18.977s44.739-5.859,42.36-8.237a91.76,91.76,0,0,0-7.208-5.982l10.3-34.3,12.356-6.672-4.17-17.134-24.887,3.367Z" transform="translate(-53.528 -213.779)" fill="#fafafa"/>
      <path id="Path_23096" data-name="Path 23096" d="M168.655,290.278c0,.144-13.952.268-31.147.268s-31.158-.124-31.158-.268,13.952-.268,31.158-.268S168.655,290.134,168.655,290.278Z" transform="translate(-53.353 -212.872)" fill="#1550a2"/>
      <path id="Path_23097" data-name="Path 23097" d="M165.945,300.068c0,.144-13.952.268-31.147.268s-31.158-.124-31.158-.268,13.942-.268,31.158-.268S165.945,299.924,165.945,300.068Z" transform="translate(-53.433 -212.582)" fill="#1550a2"/>
      <path id="Path_23098" data-name="Path 23098" d="M165.509,310.638c0,.154-10.564.278-23.6.278s-23.59-.124-23.59-.278,10.564-.268,23.59-.268S165.509,310.494,165.509,310.638Z" transform="translate(-52.998 -212.268)" fill="#1550a2"/>
      <path id="Path_23099" data-name="Path 23099" d="M169.019,320.828c0,.144-10.564.268-23.59.268s-23.59-.124-23.59-.268,10.554-.268,23.59-.268S169.019,320.673,169.019,320.828Z" transform="translate(-52.894 -211.966)" fill="#1550a2"/>
      <path id="Path_23100" data-name="Path 23100" d="M179.408,277.108c0,.154-6.981.268-15.579.268s-15.589-.113-15.589-.268,6.971-.268,15.589-.268S179.408,277,179.408,277.108Z" transform="translate(-52.111 -213.263)" fill="#1550a2"/>
      <path id="Path_23101" data-name="Path 23101" d="M180.5,266.723c0,.154-6.95.432-15.517.628s-15.538.247-15.538.1,6.94-.432,15.517-.638S180.5,266.578,180.5,266.723Z" transform="translate(-52.075 -213.566)" fill="#1550a2"/>
      <path id="Path_23102" data-name="Path 23102" d="M121.112,295.35a68.526,68.526,0,0,1-1.678,8.423,70.016,70.016,0,0,1-2.193,8.309,70.02,70.02,0,0,1,1.668-8.423,66.606,66.606,0,0,1,2.2-8.309Z" transform="translate(-53.03 -212.714)" fill="#263238"/>
      <path id="Path_23103" data-name="Path 23103" d="M168.676,420.21,155.64,461.324l15.713,1.586,14.765-35.729Z" transform="translate(-51.891 -209.01)" fill="#b78876"/>
      <path id="Path_23104" data-name="Path 23104" d="M180.3,446.332l-7.486,18.534s16.351,13.849,15.3,17.412L151.6,469.087l10.472-29.407Z" transform="translate(-52.011 -208.433)" fill="#455a64"/>
      <path id="Path_23105" data-name="Path 23105" d="M161.838,458.66a1.586,1.586,0,0,0-1.647,1.328,1.524,1.524,0,0,0,1.3,1.648,1.678,1.678,0,0,0,1.74-1.411c0-.783-.772-1.678-1.544-1.565" transform="translate(-51.756 -207.87)" fill="#e0e0e0"/>
      <path id="Path_23106" data-name="Path 23106" d="M151.6,468.324l1.174-2.924,34.576,13.777s1.369,1.287.762,2.368Z" transform="translate(-52.011 -207.67)" fill="#e0e0e0"/>
      <path id="Path_23107" data-name="Path 23107" d="M172.956,464.216c-.072.175-1.03-.062-2.059.185s-1.823.844-1.956.71.494-1.03,1.812-1.349S173.049,464.061,172.956,464.216Z" transform="translate(-51.497 -207.721)" fill="#263238"/>
      <path id="Path_23108" data-name="Path 23108" d="M176.1,467.086c0,.2-.906.216-1.781.752s-1.308,1.225-1.514,1.225.072-1.122,1.174-1.761S176.159,466.921,176.1,467.086Z" transform="translate(-51.384 -207.626)" fill="#263238"/>
      <path id="Path_23109" data-name="Path 23109" d="M176.5,472.375c-.175,0-.1-1.03.71-1.812s1.792-.9,1.812-.721-.69.515-1.339,1.184S176.688,472.427,176.5,472.375Z" transform="translate(-51.275 -207.54)" fill="#263238"/>
      <path id="Path_23110" data-name="Path 23110" d="M174.112,459.953c-.134.134-.865-.412-1.895-.71s-1.936-.257-1.977-.443.958-.556,2.162-.185S174.287,459.84,174.112,459.953Z" transform="translate(-51.458 -207.876)" fill="#263238"/>
      <path id="Path_23111" data-name="Path 23111" d="M175.579,456.375a3.7,3.7,0,0,1-1.823-.669,8.3,8.3,0,0,1-1.7-1.287,7.518,7.518,0,0,1-.855-.937,2.358,2.358,0,0,1-.391-.628.824.824,0,0,1,.257-.978,1.03,1.03,0,0,1,.927-.124,3.007,3.007,0,0,1,.659.34,7.134,7.134,0,0,1,1.03.8,6.91,6.91,0,0,1,1.287,1.72,3.212,3.212,0,0,1,.535,1.874c-.1,0-.309-.68-.937-1.637a7.568,7.568,0,0,0-1.3-1.5,6.042,6.042,0,0,0-.937-.71c-.35-.237-.68-.36-.834-.227s-.072.082,0,.216a2.3,2.3,0,0,0,.3.463,11.384,11.384,0,0,0,.762.906,11.693,11.693,0,0,0,1.524,1.318,13.018,13.018,0,0,1,1.493,1.06Z" transform="translate(-51.443 -208.077)" fill="#263238"/>
      <path id="Path_23112" data-name="Path 23112" d="M175.122,456.564a3.089,3.089,0,0,1,.165-1.946,6.24,6.24,0,0,1,1.843-2.852,1.617,1.617,0,0,1,1.493-.5.937.937,0,0,1,.587.793,2.4,2.4,0,0,1-.062.741,4.231,4.231,0,0,1-.443,1.225,4.4,4.4,0,0,1-1.462,1.606,2.457,2.457,0,0,1-1.874.566,15.056,15.056,0,0,0,1.6-.937,4.469,4.469,0,0,0,1.2-1.514,4.222,4.222,0,0,0,.35-1.03c.082-.4.052-.772-.113-.783a1.394,1.394,0,0,0-.855.371,6.177,6.177,0,0,0-.813.824,7.414,7.414,0,0,0-1.03,1.7C175.287,455.832,175.236,456.574,175.122,456.564Z" transform="translate(-51.316 -208.09)" fill="#263238"/>
      <path id="Path_23113" data-name="Path 23113" d="M216.35,382.929l19.461,33.824,15.919-10.214L232.186,372.2Z" transform="translate(-50.09 -210.434)" fill="#b78876"/>
      <path id="Path_23114" data-name="Path 23114" d="M245.844,396.16,255.9,413.5s20.964-4.407,23.136-1.39l-32.867,20.7L229.4,406.457Z" transform="translate(-49.703 -209.724)" fill="#455a64"/>
      <path id="Path_23115" data-name="Path 23115" d="M244.4,417.823a1.575,1.575,0,0,0,0,2.111,1.524,1.524,0,0,0,2.059,0,1.678,1.678,0,0,0-.051-2.245,1.6,1.6,0,0,0-2.183.257" transform="translate(-49.27 -209.095)" fill="#e0e0e0"/>
      <path id="Path_23116" data-name="Path 23116" d="M245.736,432.351l-1.586-2.718,32.1-18.822s1.864-.288,2.348.844Z" transform="translate(-49.266 -209.29)" fill="#e0e0e0"/>
      <path id="Path_23117" data-name="Path 23117" d="M255.609,412.491c.093.165-.659.741-1.122,1.75s-.463,1.956-.649,1.987-.535-1.03,0-2.265S255.547,412.316,255.609,412.491Z" transform="translate(-48.987 -209.24)" fill="#263238"/>
      <path id="Path_23118" data-name="Path 23118" d="M259.8,411.761c.134.134-.391.844-.5,1.874s.175,1.833,0,1.925-.834-.741-.669-2.059S259.7,411.616,259.8,411.761Z" transform="translate(-48.837 -209.262)" fill="#263238"/>
      <path id="Path_23119" data-name="Path 23119" d="M264.231,414.672c-.134.134-.855-.525-1.03-1.668s.391-1.956.546-1.874,0,.855.113,1.792S264.375,414.559,264.231,414.672Z" transform="translate(-48.702 -209.28)" fill="#263238"/>
      <path id="Path_23120" data-name="Path 23120" d="M253,408.9c0,.2-.855.432-1.72,1.03s-1.39,1.359-1.565,1.277.154-1.091,1.184-1.822S253,408.728,253,408.9Z" transform="translate(-49.102 -209.349)" fill="#263238"/>
      <path id="Path_23121" data-name="Path 23121" d="M251.052,405.57a4.019,4.019,0,0,1-1.647,1.03,9.553,9.553,0,0,1-2.059.556,12.2,12.2,0,0,1-1.266.093,2.541,2.541,0,0,1-.741-.082.824.824,0,0,1-.607-.8,1.03,1.03,0,0,1,.474-.813,2.861,2.861,0,0,1,.669-.3,6.744,6.744,0,0,1,3.388-.257c1.215.227,1.853.669,1.812.731s-.721-.175-1.864-.268a8.012,8.012,0,0,0-2,.1,6.991,6.991,0,0,0-1.122.3c-.412.134-.71.319-.7.525s0,.1.154.165a2.06,2.06,0,0,0,.546.051,10.443,10.443,0,0,0,3.151-.443,12.926,12.926,0,0,1,1.812-.587Z" transform="translate(-49.249 -209.465)" fill="#263238"/>
      <path id="Path_23122" data-name="Path 23122" d="M250.885,406.077c0,.062-.721-.319-1.442-1.318a6.178,6.178,0,0,1-.906-1.946,6.8,6.8,0,0,1-.216-1.256,1.617,1.617,0,0,1,.535-1.493.906.906,0,0,1,.968,0,2.666,2.666,0,0,1,.556.494,4.778,4.778,0,0,1,.7,1.112,4.51,4.51,0,0,1,.36,2.142c-.1,1.256-.649,1.874-.7,1.822a16.175,16.175,0,0,0,.237-1.833,4.479,4.479,0,0,0-.453-1.874,3.934,3.934,0,0,0-.628-.937c-.268-.309-.577-.515-.69-.391a1.091,1.091,0,0,0-.237.9,6.779,6.779,0,0,0,.154,1.153,6.95,6.95,0,0,0,.721,1.843C250.4,405.5,250.957,405.995,250.885,406.077Z" transform="translate(-49.143 -209.612)" fill="#263238"/>
      <path id="Path_23123" data-name="Path 23123" d="M161.28,379.571,199.5,353.583,223.6,400.5l21.911-11.872s-25.237-61.574-34.3-63.53c-5.076-1.112-63.293,10-63.293,10l-6.507-3.264-16.475-2.008-1.03,2.667a56.2,56.2,0,0,0,1.833,45.429l.8,1.637Z" transform="translate(-52.949 -211.834)" fill="#263238"/>
      <path id="Path_23124" data-name="Path 23124" d="M147.191,347.152c.288,1.287,31.919,30.89,31.919,30.89L160.886,439.3l27.2,5.2,27.317-73.785L165.478,321.73l-22.848,9.545Z" transform="translate(-52.277 -211.931)" fill="#263238"/>
      <path id="Path_23125" data-name="Path 23125" d="M198.311,352.75c.082.124-8.412,6.034-18.956,13.211s-19.172,12.891-19.265,12.788,8.4-6.044,18.956-13.221S198.218,352.627,198.311,352.75Z" transform="translate(-51.759 -211.011)" fill="#455a64"/>
      <path id="Path_23126" data-name="Path 23126" d="M216.825,390.929a9.019,9.019,0,0,1-.927-1.411c-.566-.927-1.349-2.3-2.306-3.985-1.9-3.388-4.438-8.124-7.115-13.386s-5.045-10.111-6.7-13.622c-.834-1.761-1.493-3.192-1.936-4.18a8.588,8.588,0,0,1-.628-1.565,11.329,11.329,0,0,1,.824,1.472l2.059,4.119c1.792,3.552,4.191,8.3,6.837,13.561s5.148,10.039,6.971,13.468c.875,1.658,1.606,3.027,2.162,4.067a10.635,10.635,0,0,1,.762,1.462Z" transform="translate(-50.658 -211.01)" fill="#455a64"/>
      <path id="Path_23127" data-name="Path 23127" d="M183.752,365.78a49,49,0,0,1-2.924,6.569,48.95,48.95,0,0,1-3.408,6.322,96.665,96.665,0,0,1,6.332-12.891Z" transform="translate(-51.245 -210.625)" fill="#455a64"/>
      <path id="Path_23128" data-name="Path 23128" d="M100.65,308.32l-6.178,22.817a11.9,11.9,0,0,0,1.03,8.783h0a11.965,11.965,0,0,0,13.231,5.982l48.96-12.057-5.148-10.173-38.571,3.346,4.119-15.671Z" transform="translate(-53.718 -212.329)" fill="#b78876"/>
      <path id="Path_23129" data-name="Path 23129" d="M121.55,343.53l.638-3.315,26.534-4.767,7.712-40.908,49.28-5.869-8.278,43.668Z" transform="translate(-52.902 -212.912)" fill="#455a64"/>
      <path id="Path_23130" data-name="Path 23130" d="M177,315.93a2.78,2.78,0,1,1,2.852-2.255A2.584,2.584,0,0,1,177,315.93Z" transform="translate(-51.336 -212.268)" fill="#ebebeb"/>
      <path id="Path_23131" data-name="Path 23131" d="M128.55,228.066l.093,2.955,1.112,44.275c.134,5.148,4.654,9.123,10.152,8.937h0c5.56-.175,10.029-4.531,9.988-9.73-.051-5.447,0-11.192,0-11.192s7.012-1.246,8.361-10.43c.669-4.561.35-12.037-.1-18.143a9.679,9.679,0,0,0-10.781-8.9Z" transform="translate(-52.695 -214.777)" fill="#b78876"/>
      <path id="Path_23132" data-name="Path 23132" d="M153.917,239.5a1.184,1.184,0,0,1-1.122,1.2,1.122,1.122,0,0,1-1.215-1.03,1.184,1.184,0,0,1,1.112-1.2,1.133,1.133,0,0,1,1.225,1.03Z" transform="translate(-52.011 -214.401)" fill="#263238"/>
      <path id="Path_23133" data-name="Path 23133" d="M155.9,238.345c-.144.154-1.03-.494-2.306-.484s-2.183.669-2.327.515.082-.35.484-.649a3.243,3.243,0,0,1,1.853-.6,3.182,3.182,0,0,1,1.843.566C155.843,238.026,155.977,238.273,155.9,238.345Z" transform="translate(-52.022 -214.441)" fill="#263238"/>
      <path id="Path_23134" data-name="Path 23134" d="M141.8,239.94a1.174,1.174,0,0,1-1.122,1.2,1.133,1.133,0,0,1-1.225-1.03,1.174,1.174,0,0,1,1.122-1.194,1.122,1.122,0,0,1,1.225,1.019Z" transform="translate(-52.371 -214.388)" fill="#263238"/>
      <path id="Path_23135" data-name="Path 23135" d="M143.835,238.715c-.144.154-1.03-.494-2.306-.484s-2.183.669-2.327.515.072-.35.474-.649a3.274,3.274,0,0,1,1.864-.6,3.151,3.151,0,0,1,1.833.566C143.763,238.365,143.907,238.643,143.835,238.715Z" transform="translate(-52.38 -214.43)" fill="#263238"/>
      <path id="Path_23136" data-name="Path 23136" d="M148.28,248.033a8.475,8.475,0,0,1,2.059-.391c.329,0,.628-.1.68-.329a1.606,1.606,0,0,0-.227-.947l-.978-2.451a42.154,42.154,0,0,1-2.224-6.4,40.154,40.154,0,0,1,2.729,6.178l.947,2.461a1.926,1.926,0,0,1,.185,1.266.834.834,0,0,1-.525.484,2.347,2.347,0,0,1-.556.082A8.082,8.082,0,0,1,148.28,248.033Z" transform="translate(-52.13 -214.429)" fill="#263238"/>
      <path id="Path_23137" data-name="Path 23137" d="M149.636,262.349a23.291,23.291,0,0,1-12.356-3.089s3.089,6.26,12.212,5.292Z" transform="translate(-52.436 -213.784)" fill="#aa6550"/>
      <path id="Path_23138" data-name="Path 23138" d="M144.357,236.681c-.134.34-1.39.124-2.883.227s-2.708.463-2.893.144c-.082-.154.144-.463.638-.772a4.757,4.757,0,0,1,2.173-.649,4.86,4.86,0,0,1,2.234.36C144.161,236.238,144.419,236.526,144.357,236.681Z" transform="translate(-52.398 -214.486)" fill="#263238"/>
      <path id="Path_23139" data-name="Path 23139" d="M155.386,234.037c-.227.288-1.1,0-2.142,0s-1.936.216-2.142-.082,0-.432.422-.71a3.089,3.089,0,0,1,3.46.072C155.355,233.646,155.478,233.944,155.386,234.037Z" transform="translate(-52.028 -214.571)" fill="#263238"/>
      <path id="Path_23140" data-name="Path 23140" d="M148.25,252.268a2.142,2.142,0,0,1-1.1-.113l-1.03-.288c-.288-.093-.607-.227-.968-.36a2.059,2.059,0,0,1-.947-.566c-.216-.278-.175-.772.319-1.215a2.667,2.667,0,0,1,4.119,1.369C148.858,251.743,148.59,252.175,148.25,252.268Z" transform="translate(-52.234 -214.082)" fill="#aa6550"/>
      <path id="Path_23141" data-name="Path 23141" d="M148.441,252.132c-.124.093-.741-1.174-2.224-1.555a5.4,5.4,0,0,0-2.687.3,1.532,1.532,0,0,1,.669-.587,3.11,3.11,0,0,1,3.933,1.009C148.452,251.762,148.5,252.112,148.441,252.132Z" transform="translate(-52.25 -214.06)" fill="#263238"/>
      <path id="Path_23142" data-name="Path 23142" d="M139.748,222.253a11.542,11.542,0,0,1-1.658,14.415c-2.193,2.059-5.457,3.635-5.673,6.621-.247,3.305,3.583,5.776,3.583,9.092s-3.923,5.581-4.7,8.907c-.618,2.677,1.03,5.354,2.842,7.383s4.119,3.82,5.148,6.332a11.244,11.244,0,0,1-.309,8.824,27.894,27.894,0,0,1-5.148,7.4,34.772,34.772,0,0,0-8.484-1.884c.175-1.091.36-2.193.546-3.285a3.017,3.017,0,0,1-2.214,2.78,8.123,8.123,0,0,1-3.789.052,61.615,61.615,0,0,1-11.326-2.914,20.377,20.377,0,0,0,4.119-5.148,6.868,6.868,0,0,0,.113-6.384c-.906-1.544-2.574-2.533-3.408-4.119-1.246-2.368-.216-5.375,1.555-7.383s4.18-3.316,6.291-4.963,4.047-3.872,4.211-6.549c.227-3.46-2.584-6.621-2.234-10.07.391-3.933,4.551-6.343,6.178-9.947,1.184-2.605,1.03-5.818,2.842-8.031a6.909,6.909,0,0,1,5.694-2.265,12.809,12.809,0,0,1,5.931,2.059" transform="translate(-53.287 -214.916)" fill="#263238"/>
      <path id="Path_23143" data-name="Path 23143" d="M150.037,263.523c-1.647.906-1.555,3.429-.546,5.025s2.626,2.739,3.624,4.345a7.125,7.125,0,0,1-1.678,9.082l3.954,1.493.865-.484,2.43-1.38-1.143,2.811h2.533a7.208,7.208,0,0,0,5.951-11.481c-1.03-1.442-2.657-2.585-3.017-4.325-.422-2.111,1.174-4.016,1.946-6.013a8.495,8.495,0,0,0-2.759-9.607" transform="translate(-52.095 -213.97)" fill="#263238"/>
    </g>
    <g id="freepik--speech-bubble--inject-4" transform="translate(41.536 165.261)">
      <path id="Path_23144" data-name="Path 23144" d="M74.509,182.294a1.39,1.39,0,0,1,.772,1.246V190.4a1.369,1.369,0,0,1-.546,1.091,1.339,1.339,0,0,1-1.2.227,4.335,4.335,0,0,0-3.357.515,3.841,3.841,0,0,0-1.833,2.451,3.913,3.913,0,0,0,.7,3,4.428,4.428,0,0,0,2.832,1.874,5.148,5.148,0,0,0,5.4-3.491,1.373,1.373,0,1,1,2.615.834,7.918,7.918,0,0,1-8.443,5.375,7.043,7.043,0,0,1-4.664-3.027,6.713,6.713,0,0,1-1.133-5.148,6.61,6.61,0,0,1,3.089-4.242,7.208,7.208,0,0,1,3.779-1.03V183.54a1.38,1.38,0,0,1,1.38-1.38,1.452,1.452,0,0,1,.618.134Z" transform="translate(-40.825 -161.248)" fill="#1550a2"/>
      <path id="Path_23145" data-name="Path 23145" d="M72.41,179.523a1.122,1.122,0,1,1,.347.791,1.122,1.122,0,0,1-.347-.791Z" transform="translate(-40.621 -161.36)" fill="#1550a2"/>
      <path id="Path_23146" data-name="Path 23146" d="M105.1,215.151a2.241,2.241,0,0,0-.906.288,4.119,4.119,0,0,0-1.874,1.617,3.892,3.892,0,0,0-.587,1.627,3.408,3.408,0,0,0,.34,1.936,3.779,3.779,0,0,0,7.084-.412,3.408,3.408,0,0,0,.113-1.967,4.119,4.119,0,0,0-.772-1.555,4.222,4.222,0,0,0-2.059-1.4c-.587-.165-.937-.144-.937-.175h.247a1.78,1.78,0,0,1,.309,0,2.121,2.121,0,0,1,.4.062,4.119,4.119,0,0,1,2.224,1.38,4.026,4.026,0,0,1,.855,1.627,3.624,3.624,0,0,1-.093,2.059,4.263,4.263,0,0,1-1.318,1.925,4.005,4.005,0,0,1-2.317.958,4.046,4.046,0,0,1-2.409-.68,4.263,4.263,0,0,1-1.544-1.75,3.748,3.748,0,0,1-.34-2.059,4.119,4.119,0,0,1,.659-1.72,4.191,4.191,0,0,1,2.059-1.637,3.087,3.087,0,0,1,.4-.113,1.214,1.214,0,0,1,.3-.051A.639.639,0,0,1,105.1,215.151Z" transform="translate(-39.758 -160.27)" fill="#263238"/>
      <path id="Path_23147" data-name="Path 23147" d="M114.827,224.821a3.41,3.41,0,0,0-.556.206,2.646,2.646,0,0,0-1.184,1.03,2.234,2.234,0,0,0-.144,2.2,2.337,2.337,0,0,0,4.376-.257,2.224,2.224,0,0,0-.4-2.173,2.636,2.636,0,0,0-1.3-.885c-.36-.113-.577-.1-.577-.134a1.2,1.2,0,0,1,.607,0,2.7,2.7,0,0,1,1.977,1.9,2.42,2.42,0,0,1,0,1.349,2.595,2.595,0,0,1-4.87.288,2.286,2.286,0,0,1-.216-1.339,2.584,2.584,0,0,1,.422-1.091,2.646,2.646,0,0,1,1.318-1.03,1.266,1.266,0,0,1,.546-.072Z" transform="translate(-39.431 -159.984)" fill="#263238"/>
      <path id="Path_23148" data-name="Path 23148" d="M105.256,196.323v-3.151c0-.412-.062-.855-.093-1.339s-.072-1.03-.124-1.565a4.994,4.994,0,0,0-.113-.855l-.154-.906a30.53,30.53,0,0,0-2.852-8.7,31.652,31.652,0,0,0-7.3-9.566l-1.287-1.122c-.453-.35-.937-.68-1.411-1.03l-.731-.515a4.427,4.427,0,0,0-.741-.494l-1.586-.958c-.268-.154-.525-.319-.8-.463l-.855-.391-1.72-.783c-.6-.247-1.215-.432-1.823-.649l-.927-.319-.474-.154-.484-.113a30.891,30.891,0,0,0-3.954-.772c-.68-.072-1.369-.2-2.059-.237l-2.059-.062h-1.03l-1.03.082c-.721.062-1.442.082-2.152.175a33.5,33.5,0,0,0-4.314.906l-1.081.309a1.754,1.754,0,0,0-.535.154l-.525.206-2.121.824c-.69.309-1.369.68-2.059,1.03-.34.185-.69.329-1.03.535l-1.03.628a34.918,34.918,0,0,0-3.82,2.77l-1.74,1.637-.443.412-.4.453-.793.916-.8.906-.721,1.03-.71,1.03-.36.5c-.113.175-.216.35-.319.525l-1.246,2.152c-.34.752-.69,1.5-1.03,2.265a31.353,31.353,0,0,0-1.555,19.934l.68,2.409.9,2.306.227.577.278.546.556,1.1.546,1.081.659,1.03.649,1.03.319.5.371.474,1.472,1.895a35.164,35.164,0,0,0,3.346,3.326l.875.772c.288.257.618.463.927.69.628.443,1.236.916,1.874,1.328l1.956,1.091.484.288.515.237,1.03.463a34.061,34.061,0,0,0,4.119,1.565c.7.206,1.411.34,2.059.515l1.03.247c.35.072.7.093,1.03.144l2.059.268c.69.072,1.38,0,2.059.082a29.094,29.094,0,0,0,4.036-.144H77.4l.484-.082.968-.165c.638-.124,1.277-.206,1.895-.36l1.833-.5.906-.247.865-.34,1.7-.659a5.3,5.3,0,0,0,.813-.371l.8-.4c.525-.268,1.03-.515,1.555-.793l1.442-.916a31.436,31.436,0,0,0,8.742-8.351c.257-.36.525-.71.772-1.03l.638-1.091.618-1.03c.1-.175.206-.34.3-.515s.154-.36.237-.535l.927-2c.268-.638.453-1.287.669-1.874l.309-.875a5.261,5.261,0,0,0,.237-.824l.371-1.534c.1-.474.227-.906.3-1.308s.1-.772.154-1.1c.082-.659.154-1.153.206-1.5s.082-.5.082-.5v.515l-.185,1.5a9.663,9.663,0,0,1-.134,1.1c-.051.4-.185.844-.288,1.318s-.227,1.03-.35,1.534a5.067,5.067,0,0,1-.237.834c-.1.288-.2.577-.3.875-.216.6-.391,1.246-.669,1.895s-.6,1.308-.906,2.059l-.247.535c-.082.175-.2.35-.288.525-.206.34-.412.7-.618,1.03s-.422.731-.638,1.112-.515.71-.772,1.081a31.57,31.57,0,0,1-8.783,8.3l-1.452.927c-.5.278-1.03.535-1.565.8l-.793.412a5.92,5.92,0,0,1-.824.371l-1.72.669-.865.34-.906.257-1.843.515c-.628.154-1.277.237-1.915.36l-.978.175-.484.082h-.5a29.373,29.373,0,0,1-4.057.165,17.048,17.048,0,0,1-2.059-.082l-2.059-.268a4.142,4.142,0,0,1-1.03-.154l-1.03-.237c-.7-.175-1.421-.309-2.121-.515a31.743,31.743,0,0,1-4.119-1.575l-1.03-.463-.515-.237-.494-.288L56.46,220.8c-.638-.412-1.256-.9-1.884-1.339-.319-.237-.649-.443-.937-.7l-.886-.772a34.628,34.628,0,0,1-3.532-3.377l-1.493-1.9-.371-.484-.329-.515-.649-1.03-.659-1.03-.556-1.091-.566-1.112-.278-.556-.247-.607c-.309-.772-.607-1.555-.906-2.327s-.453-1.617-.69-2.43a31.724,31.724,0,0,1,1.6-20.1l1.03-2.3c.422-.721.844-1.442,1.256-2.162.113-.175.206-.36.319-.535l.36-.5.731-1.03.721-1.03.813-.927.8-.916.4-.453.443-.422,1.761-1.658a34.5,34.5,0,0,1,3.861-2.78l1.03-.628c.329-.216.69-.36,1.03-.546.69-.34,1.369-.721,2.059-1.03l2.142-.834.535-.206.535-.154,1.091-.3a32.611,32.611,0,0,1,4.345-.906c.731-.093,1.452-.124,2.173-.185l1.03-.072h1.03l2.121.062a17.036,17.036,0,0,1,2.059.247,27.8,27.8,0,0,1,3.985.793l.494.113a1.637,1.637,0,0,1,.463.154l.937.319c.618.227,1.246.4,1.833.649l1.853.906.855.391.813.463,1.586.927a6.383,6.383,0,0,1,.752.5l.731.525c.474.35.968.68,1.421,1.03l1.3,1.133a31.755,31.755,0,0,1,7.341,9.689,30.087,30.087,0,0,1,2.821,8.752c.051.309.1.618.154.906a6.581,6.581,0,0,1,.1.865c0,.556.082,1.081.113,1.565s.072.937.082,1.349,0,.783,0,1.122v1.514Z" transform="translate(-41.536 -161.85)" fill="#263238"/>
    </g>
    <g id="freepik--Sreen--inject-4" transform="translate(242.962 46.84)">
      <rect id="Rectangle_2906" data-name="Rectangle 2906" width="212.574" height="322.685" transform="translate(0.618 0.288)" fill="#fff"/>
      <rect id="Rectangle_2907" data-name="Rectangle 2907" width="212.635" height="138.87" transform="translate(0.185 16.722)" fill="#f5f5f5"/>
      <path id="Path_23149" data-name="Path 23149" d="M287.827,217.034v3.089h4.541v1.112h-4.541V224.9h-1.3V215.84h6.4v1.194Z" transform="translate(-235.696 -41.827)" fill="#263238"/>
      <path id="Path_23150" data-name="Path 23150" d="M293.51,221.445a3.573,3.573,0,1,1,3.573,3.511,3.418,3.418,0,0,1-3.573-3.511Zm5.879,0a2.317,2.317,0,1,0-2.306,2.42,2.255,2.255,0,0,0,2.306-2.42Z" transform="translate(-235.489 -41.769)" fill="#263238"/>
      <path id="Path_23151" data-name="Path 23151" d="M305.806,217.94v1.2h-.288a2.059,2.059,0,0,0-2.162,2.317v3.418H302.11V218H303.3v1.143A2.646,2.646,0,0,1,305.806,217.94Z" transform="translate(-235.233 -41.765)" fill="#263238"/>
      <path id="Path_23152" data-name="Path 23152" d="M313.7,218v5.921c0,2.43-1.225,3.521-3.552,3.521a5.025,5.025,0,0,1-3.274-1.03l.587-.958a4.2,4.2,0,0,0,2.646.9c1.617,0,2.358-.752,2.358-2.306V223.5a3.151,3.151,0,0,1-2.471,1.03,3.326,3.326,0,1,1,0-6.641,3.089,3.089,0,0,1,2.533,1.133v-1.03Zm-1.215,3.243a2.368,2.368,0,1,0-2.363,2.212,2.368,2.368,0,0,0,2.363-2.212Z" transform="translate(-235.104 -41.767)" fill="#263238"/>
      <path id="Path_23153" data-name="Path 23153" d="M315.18,221.445a3.573,3.573,0,1,1,3.573,3.511,3.418,3.418,0,0,1-3.573-3.511Zm5.879,0a2.317,2.317,0,1,0-2.306,2.42,2.255,2.255,0,0,0,2.306-2.42Z" transform="translate(-234.846 -41.769)" fill="#263238"/>
      <path id="Path_23154" data-name="Path 23154" d="M327.67,224.51a2.389,2.389,0,0,1-1.5.484,1.956,1.956,0,0,1-2.173-2.152v-3.769H322.82v-1.03h1.215v-1.5h1.236v1.5h1.967v1.03h-1.967v3.717a1.03,1.03,0,0,0,1.03,1.153,1.565,1.565,0,0,0,.968-.33Z" transform="translate(-234.619 -41.807)" fill="#263238"/>
      <path id="Path_23155" data-name="Path 23155" d="M339.475,221.441a3.336,3.336,0,0,1-3.47,3.511,2.914,2.914,0,0,1-2.389-1.122v3.552H332.37V218h1.194v1.081A2.914,2.914,0,0,1,336,217.93a3.336,3.336,0,0,1,3.47,3.511Zm-1.256,0a2.317,2.317,0,1,0-2.317,2.42,2.265,2.265,0,0,0,2.317-2.42Z" transform="translate(-234.336 -41.765)" fill="#263238"/>
      <path id="Path_23156" data-name="Path 23156" d="M346.332,220.731v4.119h-1.194v-.906a2.564,2.564,0,0,1-2.255,1.03c-1.555,0-2.533-.834-2.533-2.059s.71-2.008,2.749-2.008h2.039v-.237c0-1.03-.618-1.658-1.843-1.658a3.449,3.449,0,0,0-2.173.731l-.515-.927a4.51,4.51,0,0,1,2.832-.886C345.272,217.94,346.332,218.846,346.332,220.731ZM345.1,222.79v-.958h-1.915c-1.236,0-1.586.484-1.586,1.03s.566,1.112,1.514,1.112a2,2,0,0,0,2.028-1.2Z" transform="translate(-234.099 -41.765)" fill="#263238"/>
      <path id="Path_23157" data-name="Path 23157" d="M347.56,224.18l.515-1.03a4.438,4.438,0,0,0,2.409.71c1.153,0,1.627-.35,1.627-.927,0-1.544-4.335-.206-4.335-2.945,0-1.225,1.1-2.059,2.862-2.059a4.973,4.973,0,0,1,2.5.628l-.535.978a3.573,3.573,0,0,0-1.977-.546c-1.091,0-1.617.4-1.617.947,0,1.617,4.345.3,4.345,2.965,0,1.246-1.133,2.059-2.965,2.059A4.953,4.953,0,0,1,347.56,224.18Z" transform="translate(-233.885 -41.765)" fill="#263238"/>
      <path id="Path_23158" data-name="Path 23158" d="M353.86,224.18l.515-1.03a4.438,4.438,0,0,0,2.409.71c1.153,0,1.627-.35,1.627-.927,0-1.544-4.335-.206-4.335-2.945,0-1.225,1.1-2.059,2.862-2.059a4.973,4.973,0,0,1,2.5.628l-.535.978a3.573,3.573,0,0,0-1.977-.546c-1.091,0-1.617.4-1.617.947,0,1.617,4.345.3,4.345,2.965,0,1.246-1.133,2.059-2.965,2.059A4.953,4.953,0,0,1,353.86,224.18Z" transform="translate(-233.699 -41.765)" fill="#263238"/>
      <path id="Path_23159" data-name="Path 23159" d="M371.332,218l-2.564,6.858h-1.194l-1.977-5.148-2.008,5.148h-1.194L359.81,218h1.225l2,5.457L365.092,218h1.03l2.059,5.488L370.24,218Z" transform="translate(-233.522 -41.763)" fill="#263238"/>
      <path id="Path_23160" data-name="Path 23160" d="M371.38,221.444a3.563,3.563,0,1,1,3.573,3.511,3.418,3.418,0,0,1-3.573-3.511Zm5.869,0a2.306,2.306,0,1,0-2.3,2.42,2.245,2.245,0,0,0,2.3-2.42Z" transform="translate(-233.179 -41.768)" fill="#263238"/>
      <path id="Path_23161" data-name="Path 23161" d="M383.666,217.94v1.2h-.288a2.059,2.059,0,0,0-2.162,2.317v3.418H380V218h1.184v1.143a2.646,2.646,0,0,1,2.482-1.2Z" transform="translate(-232.923 -41.765)" fill="#263238"/>
      <path id="Path_23162" data-name="Path 23162" d="M391.471,215.34v9.607h-1.194v-1.091a2.893,2.893,0,0,1-2.451,1.174,3.511,3.511,0,0,1,0-7.012,2.935,2.935,0,0,1,2.4,1.1V215.34Zm-1.236,6.178a2.317,2.317,0,1,0-2.306,2.42,2.255,2.255,0,0,0,2.306-2.42Z" transform="translate(-232.79 -41.842)" fill="#263238"/>
      <path id="Path_23163" data-name="Path 23163" d="M397.637,218.262c0-.824-.68-1.39-1.853-1.39a2.78,2.78,0,0,0-2.317,1.03l-.937-.669a4,4,0,0,1,3.346-1.452c1.864,0,3.089.865,3.089,2.306,0,2.162-2.286,2.3-2.286,4h-1.3C395.362,220.043,397.637,219.755,397.637,218.262Zm-2.461,5.921a.844.844,0,1,1,.839.751A.844.844,0,0,1,395.176,224.182Z" transform="translate(-232.552 -41.829)" fill="#263238"/>
      <path id="Path_23164" data-name="Path 23164" d="M427.3,242.738c0,.154-36.429.268-81.343.268s-81.343-.113-81.343-.268,36.419-.268,81.343-.268S427.3,242.594,427.3,242.738Z" transform="translate(-236.346 -41.037)"/>
      <path id="Path_23165" data-name="Path 23165" d="M391.566,251.188c0,.144-20.871.268-46.623.268s-46.633-.124-46.633-.268,20.882-.268,46.633-.268S391.566,251,391.566,251.188Z" transform="translate(-235.346 -40.787)"/>
      <path id="Path_23166" data-name="Path 23166" d="M376.792,145.327a24.794,24.794,0,1,0-38.468-5.879l-5.045,4.706,1.215,8.371-7.836-2.142-6.312,5.89,1.256,8.32-7.825-2.193-5.426,5.056.741,5.148-4.778-1.339-3.151,2.945-.474,7.753,11.563,2.914,37.531-35.008a24.8,24.8,0,0,0,27.008-4.541Zm-3.707-30.488a7.115,7.115,0,1,1-10.05-.35,7.115,7.115,0,0,1,10.05.35Z" transform="translate(-235.276 -45.192)" fill="#263238"/>
      <path id="Path_23167" data-name="Path 23167" d="M376.792,145.327a24.794,24.794,0,1,0-38.468-5.879l-5.045,4.706,1.215,8.371-7.836-2.142-6.312,5.89,1.256,8.32-7.825-2.193-5.426,5.056.741,5.148-4.778-1.339-3.151,2.945-.474,7.753,11.563,2.914,37.531-35.008a24.8,24.8,0,0,0,27.008-4.541Zm-3.707-30.488a7.115,7.115,0,1,1-10.05-.35,7.115,7.115,0,0,1,10.05.35Z" transform="translate(-235.276 -45.192)" fill="none"/>
      <path id="Path_23168" data-name="Path 23168" d="M371.363,114.552a10.3,10.3,0,0,0-1.411-1.03,7.208,7.208,0,0,0-4.479-.978,6.847,6.847,0,1,0,7.475,8.011,7.064,7.064,0,0,0-.669-4.531c-.515-1.03-.968-1.442-.916-1.483s.134.093.34.309a5.7,5.7,0,0,1,.793,1.03,7.053,7.053,0,0,1,.885,4.716,7.37,7.37,0,1,1-7.949-8.515,7.063,7.063,0,0,1,4.654,1.215,5.5,5.5,0,0,1,1.03.855C371.363,114.418,371.425,114.542,371.363,114.552Z" transform="translate(-233.553 -44.906)" fill="#263238"/>
      <path id="Path_23169" data-name="Path 23169" d="M376.8,145.341s-.113.124-.36.34l-1.091,1.03a25.657,25.657,0,0,1-4.8,3.089,24.928,24.928,0,0,1-20.892.3h.206L312.4,185.168l-.1.113h-.154l-11.563-2.9-.237-.051v-.247c.144-2.42.3-5.066.463-7.753v-.247l.082-.082,3.223-3.007.113-.113h.165l4.778,1.339-.381.329c-.237-1.6-.484-3.346-.741-5.148v-.154l.113-.1,5.426-5.066.124-.124h.165l7.825,2.193-.381.34c-.381-2.657-.793-5.5-1.2-8.371v-.165l.124-.1,1.668-1.565,4.644-4.325.124-.124h.165l7.836,2.193-.391.34q-.607-4.232-1.2-8.371v-.154l.113-.113,5.045-4.706-.051.371a25.237,25.237,0,0,1-3.223-11.326,23.681,23.681,0,0,1,.412-5.735,24.251,24.251,0,0,1,1.648-5.4,24.978,24.978,0,0,1,47.817,11.985,24.372,24.372,0,0,1-2.78,9.545c-.154.309-.309.6-.463.885l-.5.783a15.922,15.922,0,0,1-.947,1.411c-.669.8-1.184,1.524-1.689,2.059l-1.235,1.369-.4.371s.113-.144.36-.412l1.112-1.184a25.708,25.708,0,0,0,1.637-2.059c.309-.422.577-.916.906-1.411.165-.257.329-.515.494-.793l.453-.875a24.578,24.578,0,1,0-44.337-21.16,24.226,24.226,0,0,0-1.606,5.272,23.681,23.681,0,0,0-.391,5.6,24.712,24.712,0,0,0,3.161,11.017l.113.206-.175.165-5.035,4.706.093-.268q.6,4.119,1.2,8.381l.072.463-.463-.124-7.825-2.193.3-.072-4.644,4.325-1.658,1.534.093-.278c.412,2.873.824,5.725,1.2,8.371l.072.474-.463-.124-7.825-2.2.288-.072c-1.864,1.75-3.717,3.47-5.426,5.066l.1-.268c.247,1.761.494,3.511.731,5.148l.062.453-.443-.124-4.767-1.339.278-.072-3.161,2.945.093-.2c-.165,2.687-.329,5.334-.474,7.753l-.216-.3,11.563,2.914-.257.072,37.583-34.947.093-.082h.113a24.784,24.784,0,0,0,20.655-.144,27.211,27.211,0,0,0,4.819-2.945l1.122-.937Z" transform="translate(-235.286 -45.206)" fill="#263238"/>
      <path id="Path_23170" data-name="Path 23170" d="M375.983,142.6a24.784,24.784,0,1,0-38.458-5.89h0l-5.035,4.7,1.2,8.381-7.825-2.2-6.3,5.9,1.2,8.371-7.825-2.193-5.426,5.066.731,5.148-4.767-1.328-3.161,2.945-.474,7.753,11.563,2.9,37.531-35.008A24.774,24.774,0,0,0,375.983,142.6Zm-3.666-30.488a7.1,7.1,0,1,1-4.952-2.259A7.115,7.115,0,0,1,372.318,112.108Z" transform="translate(-235.301 -45.273)" fill="#1550a2"/>
      <path id="Path_23171" data-name="Path 23171" d="M375.983,142.6a24.784,24.784,0,1,0-38.458-5.89h0l-5.035,4.7,1.2,8.381-7.825-2.2-6.3,5.9,1.2,8.371-7.825-2.193-5.426,5.066.731,5.148-4.767-1.328-3.161,2.945-.474,7.753,11.563,2.9,37.531-35.008A24.774,24.774,0,0,0,375.983,142.6Zm-3.666-30.488a7.1,7.1,0,1,1-4.952-2.259A7.115,7.115,0,0,1,372.318,112.108Z" transform="translate(-235.301 -45.273)" fill="none"/>
      <path id="Path_23172" data-name="Path 23172" d="M370.594,111.821a10.307,10.307,0,0,0-1.411-1.03,7.053,7.053,0,0,0-4.469-1.03,6.837,6.837,0,1,0,7.475,8.011,7.053,7.053,0,0,0-.68-4.531,16.538,16.538,0,0,0-.916-1.483c.041-.041.134.093.35.309a5.707,5.707,0,0,1,.783,1.03,7.043,7.043,0,0,1,.886,4.726,7.38,7.38,0,1,1-7.99-8.443,7.053,7.053,0,0,1,4.654,1.225,5.147,5.147,0,0,1,1.03.855C370.522,111.687,370.615,111.811,370.594,111.821Z" transform="translate(-233.577 -44.986)" fill="#263238"/>
      <path id="Path_23173" data-name="Path 23173" d="M375.992,142.607s-.113.124-.35.34l-1.091.968a26.143,26.143,0,0,1-4.8,3.089,24.959,24.959,0,0,1-20.9.3h.206L311.6,182.372l-.113.1h-.144l-11.573-2.9-.227-.062v-.237c.144-2.42.309-5.066.463-7.753V171.4l.082-.072,3.161-2.955.124-.113h.165l4.767,1.328-.381.34c-.227-1.6-.484-3.346-.741-5.148v-.154l.124-.113,5.416-5.056.124-.124.175.051,7.825,2.193-.391.34-1.2-8.351V153.4l.113-.113,1.678-1.555,4.633-4.325.124-.124.175.051,7.825,2.193-.391.34q-.608-4.232-1.2-8.371v-.165l.124-.1,5.045-4.706-.062.371a25.237,25.237,0,0,1-3.223-11.326,24.194,24.194,0,0,1,.412-5.735,24.455,24.455,0,0,1,1.647-5.4,24.969,24.969,0,0,1,47.817,11.975,24.423,24.423,0,0,1-2.78,9.545l-.463.885-.5.783c-.34.5-.618,1.03-.937,1.411-.669.8-1.184,1.524-1.689,2.059l-1.194,1.143c-.257.257-.4.381-.4.381s.124-.154.371-.422l1.1-1.174a25.71,25.71,0,0,0,1.637-2.059c.309-.412.587-.906.916-1.411l.494-.783.443-.885a24.585,24.585,0,1,0-45.923-15.919,23.118,23.118,0,0,0-.391,5.6,24.712,24.712,0,0,0,3.151,11.017l.124.206-.175.165-5.045,4.706.093-.268q.608,4.119,1.2,8.371l.072.474-.453-.134-7.856-2.2.288-.072-4.633,4.335-1.678,1.555.093-.268c.422,2.873.824,5.715,1.2,8.371l.072.474-.453-.134-7.836-2.193.3-.072-5.426,5.056.093-.257c.247,1.761.5,3.5.731,5.1l.062.463-.443-.124-4.767-1.339.278-.072-3.151,2.945.093-.206c-.165,2.687-.329,5.344-.484,7.753l-.216-.3,11.563,2.924-.257.072,37.583-34.947.093-.082.113.051a24.9,24.9,0,0,0,20.655-.144,27.6,27.6,0,0,0,4.829-2.945l1.112-.937Z" transform="translate(-235.31 -45.283)" fill="#263238"/>
      <path id="Path_23174" data-name="Path 23174" d="M372.646,140.577a33.464,33.464,0,0,0,3.336-4.2,20.841,20.841,0,0,0,2.543-5.7,21.767,21.767,0,0,0,.711-8.237,21.469,21.469,0,0,0-3.264-9.39,21.726,21.726,0,0,0-8.423-7.62,20.079,20.079,0,0,0-5.859-1.977,23.331,23.331,0,0,0-3.182-.371,24.847,24.847,0,0,0-3.264.165,21.407,21.407,0,0,0-18.606,17.35,24.715,24.715,0,0,0-.391,3.243,23.58,23.58,0,0,0,.154,3.2,19.945,19.945,0,0,0,1.565,5.982,21.623,21.623,0,0,0,7.022,8.927,21.314,21.314,0,0,0,9.133,3.913,21.623,21.623,0,0,0,8.237-.134,21.046,21.046,0,0,0,5.869-2.152,32.826,32.826,0,0,0,4.417-3.027,2.1,2.1,0,0,1-.247.247l-.772.7a10.159,10.159,0,0,1-1.328,1.03,15.062,15.062,0,0,1-1.956,1.256,20.829,20.829,0,0,1-5.91,2.276,21.963,21.963,0,0,1-24.99-12.819,20.674,20.674,0,0,1-1.627-6.178,19.946,19.946,0,0,1,.2-6.538,21.973,21.973,0,0,1,19.131-17.844,20.511,20.511,0,0,1,6.621.227,20.964,20.964,0,0,1,6.013,2.059,22.022,22.022,0,0,1,11.09,25.855,20.592,20.592,0,0,1-2.687,5.745,13.978,13.978,0,0,1-1.38,1.853,10.379,10.379,0,0,1-1.133,1.256l-.752.721A2.052,2.052,0,0,1,372.646,140.577Z" transform="translate(-234.239 -45.189)" fill="#263238"/>
      <path id="Path_23175" data-name="Path 23175" d="M371.023,122.814a18.763,18.763,0,0,0,1.2-1.637,8.237,8.237,0,0,0,1.174-5.262,8.042,8.042,0,0,0-4.417-6.353,7.949,7.949,0,0,0-4.592-.813,8.062,8.062,0,0,0-6.466,11.131,8.191,8.191,0,0,0,11.367,4.026c1.153-.607,1.678-1.143,1.73-1.091s-.113.154-.371.391a6.176,6.176,0,0,1-1.246.916,8.4,8.4,0,0,1-9.164-.484,8.6,8.6,0,1,1,12.346-11.5,8.453,8.453,0,0,1-.154,9.174,6.49,6.49,0,0,1-1.03,1.174C371.177,122.721,371.033,122.835,371.023,122.814Z" transform="translate(-233.614 -45.023)" fill="#263238"/>
      <path id="Path_23176" data-name="Path 23176" d="M308.12,179.416c-.113-.124,8.33-8.237,18.874-18.029s19.183-17.7,19.3-17.576-8.33,8.237-18.874,18.029S308.233,179.539,308.12,179.416Z" transform="translate(-235.055 -43.964)" fill="#263238"/>
      <path id="Path_23177" data-name="Path 23177" d="M312.7,130.692l.35-.762.453.7a3.542,3.542,0,0,0,1.5,1.277l.772.34-.7.463a3.512,3.512,0,0,0-1.287,1.5l-.34.762-.463-.7a3.5,3.5,0,0,0-1.5-1.277l-.762-.34.7-.463A3.418,3.418,0,0,0,312.7,130.692Z" transform="translate(-234.978 -44.375)" fill="#1550a2"/>
      <path id="Path_23178" data-name="Path 23178" d="M290.363,125.123l.2-.443.268.4a1.977,1.977,0,0,0,.875.741l.443.206-.412.268a2.059,2.059,0,0,0-.741.865l-.2.453-.268-.412a1.977,1.977,0,0,0-.875-.741l-.443-.206.4-.257A2.131,2.131,0,0,0,290.363,125.123Z" transform="translate(-235.616 -44.531)" fill="#1550a2"/>
      <path id="Path_23179" data-name="Path 23179" d="M360.633,163.153l.2-.443.268.412a2.183,2.183,0,0,0,.875.741l.443.2-.4.268a1.977,1.977,0,0,0-.741.875l-.206.443-.268-.4a2.059,2.059,0,0,0-.865-.752l-.453-.2.412-.268A1.977,1.977,0,0,0,360.633,163.153Z" transform="translate(-233.532 -43.403)" fill="#1550a2"/>
      <path id="Path_23180" data-name="Path 23180" d="M395.057,143.662l.34-.762.463.7a3.491,3.491,0,0,0,1.5,1.277l.762.34-.7.463a3.48,3.48,0,0,0-1.277,1.5l-.35.762-.453-.7a3.614,3.614,0,0,0-1.5-1.277l-.772-.34.7-.463a3.511,3.511,0,0,0,1.287-1.5Z" transform="translate(-232.536 -43.991)" fill="#1550a2"/>
      <path id="Path_23181" data-name="Path 23181" d="M390.626,116.357l.577-1.287.772,1.184a5.962,5.962,0,0,0,2.523,2.152l1.287.566-1.184.772a6.044,6.044,0,0,0-2.152,2.533l-.577,1.287-.772-1.184a5.962,5.962,0,0,0-2.523-2.152l-1.287-.577,1.184-.772a5.962,5.962,0,0,0,2.152-2.523Z" transform="translate(-232.707 -44.816)" fill="#1550a2"/>
      <path id="Path_23182" data-name="Path 23182" d="M305.806,107.937l.577-1.287.772,1.174a5.889,5.889,0,0,0,2.523,2.152l1.287.577-1.174.772a5.818,5.818,0,0,0-2.152,2.523l-.577,1.287-.772-1.174a5.859,5.859,0,0,0-2.533-2.152l-1.277-.577,1.174-.772a5.89,5.89,0,0,0,2.152-2.523Z" transform="translate(-235.223 -45.066)" fill="#1550a2"/>
      <path id="Path_23183" data-name="Path 23183" d="M416.363,299.213a8.494,8.494,0,0,0,.968-.082,6.294,6.294,0,0,0,1.194-.134l.752-.124.855-.227a13.818,13.818,0,0,0,4.2-1.874,14.58,14.58,0,0,0,6.652-11.882v-2.214l-.062-1.133a7.3,7.3,0,0,0-.175-1.143,15.074,15.074,0,0,0-1.637-4.541,14.611,14.611,0,0,0-8.1-6.672,16.474,16.474,0,0,0-5.776-.762h-6.24l-133.228.082a14.539,14.539,0,0,0-8.855,3.017,15.332,15.332,0,0,0-3.213,3.418,14.6,14.6,0,0,0-1.925,4.242,15.992,15.992,0,0,0-.443,2.286c0,.772-.1,1.544-.082,2.337a15.447,15.447,0,0,0,.556,4.572,15.127,15.127,0,0,0,1.9,4.119,15.661,15.661,0,0,0,3.089,3.305A14.087,14.087,0,0,0,270.707,298a15.757,15.757,0,0,0,2.131.628,16.207,16.207,0,0,0,2.214.257c2.976.072,5.982,0,8.927,0h17.309l59.9.051,40.383.093,10.976.051h0l-10.976.051-40.383.082-59.9.062H275.011a17.267,17.267,0,0,1-2.286-.257,16.577,16.577,0,0,1-2.214-.659,14.416,14.416,0,0,1-4.047-2.265,14.817,14.817,0,0,1-5.148-7.712,16.229,16.229,0,0,1-.577-4.716,23.242,23.242,0,0,1,.082-2.389,16.885,16.885,0,0,1,.463-2.368,15.331,15.331,0,0,1,2-4.407,15.557,15.557,0,0,1,3.336-3.542,15.043,15.043,0,0,1,9.174-3.089l133.228.072h6.24a17.236,17.236,0,0,1,5.89.793,14.982,14.982,0,0,1,8.237,6.847,15.249,15.249,0,0,1,1.658,4.644l.175,1.164v3.388a15.125,15.125,0,0,1-.71,4.119,15.446,15.446,0,0,1-1.637,3.418,14.62,14.62,0,0,1-4.469,4.469,14.188,14.188,0,0,1-4.263,1.853l-.865.206-.762.113a7.051,7.051,0,0,1-1.194.113Z" transform="translate(-236.461 -40.284)" fill="#263238"/>
      <rect id="Rectangle_2908" data-name="Rectangle 2908" width="170.162" height="30.962" rx="14.35" transform="translate(24.516 265.55)" fill="#1550a2"/>
      <path id="Path_23184" data-name="Path 23184" d="M294.69,289.633a6.952,6.952,0,0,1,0-.916c0-.638,0-1.472-.051-2.5,0-2.2-.062-5.251-.113-8.927l.216.206-18.4.062.268-.268h0v12.325l-.247-.247,13.19.124,3.81.062h1.4a9.885,9.885,0,0,1-1.3.062l-3.758.062-13.386.124H276v-12.49h0c-.237.237.329-.329.268-.278l18.4.062h.216v.216c-.051,3.738-.093,6.827-.113,9.061,0,1.03,0,1.833-.062,2.461a5.909,5.909,0,0,1-.021.8Z" transform="translate(-236.01 -40.012)" fill="#263238"/>
      <path id="Path_23185" data-name="Path 23185" d="M294.68,277.28a24.337,24.337,0,0,1-2.574,2.471c-1.627,1.483-3.913,3.491-6.446,5.694h-.4l-.062-.051-.124-.1-.237-.206-.463-.4-.906-.793-1.72-1.514-2.883-2.574a24.343,24.343,0,0,1-2.574-2.471,22.547,22.547,0,0,1,2.79,2.131l2.955,2.492,1.74,1.483.916.783.474.412.227.206.124.093.062.051h-.319c2.543-2.193,4.86-4.119,6.559-5.57a22.553,22.553,0,0,1,2.862-2.131Z" transform="translate(-235.999 -40.005)" fill="#263238"/>
      <path id="Path_23186" data-name="Path 23186" d="M282.92,282.86a19.863,19.863,0,0,1-3.089,3.491,20.758,20.758,0,0,1-3.511,3.089,20.836,20.836,0,0,1,3.089-3.491A21.221,21.221,0,0,1,282.92,282.86Z" transform="translate(-235.998 -39.839)" fill="#263238"/>
      <path id="Path_23187" data-name="Path 23187" d="M294.329,289.471a20.16,20.16,0,0,1-3.305-3.316,21.077,21.077,0,0,1-2.9-3.666,20.724,20.724,0,0,1,3.305,3.315,20.488,20.488,0,0,1,2.9,3.666Z" transform="translate(-235.648 -39.85)" fill="#263238"/>
      <path id="Path_23188" data-name="Path 23188" d="M305.063,285.836v.412H300.79V280.07h4.119v.412h-3.686v2.44h3.295v.4h-3.295v2.533Z" transform="translate(-235.273 -39.922)" fill="#263238"/>
      <path id="Path_23189" data-name="Path 23189" d="M313.989,283.506v2.7h-.443v-2.667c0-1.03-.546-1.6-1.441-1.6a1.627,1.627,0,0,0-1.689,1.8V286.2h-.443v-2.667c0-1.03-.546-1.6-1.442-1.6a1.627,1.627,0,0,0-1.689,1.8V286.2H306.4V281.58h.422v1.03a1.833,1.833,0,0,1,1.771-1.03,1.637,1.637,0,0,1,1.689,1.112,1.946,1.946,0,0,1,1.864-1.112,1.73,1.73,0,0,1,1.843,1.925Z" transform="translate(-235.106 -39.878)" fill="#263238"/>
      <path id="Path_23190" data-name="Path 23190" d="M318.878,283.27V286.2h-.422v-.824a1.8,1.8,0,0,1-1.668.855c-1.03,0-1.658-.525-1.658-1.318s.443-1.287,1.72-1.287h1.586v-.371a1.2,1.2,0,0,0-1.369-1.318,2.43,2.43,0,0,0-1.6.577l-.216-.319a2.821,2.821,0,0,1,1.843-.649,1.565,1.565,0,0,1,1.781,1.72Zm-.443,1.565v-.865H316.86c-.958,0-1.287.4-1.287.927s.463.978,1.277.978A1.586,1.586,0,0,0,318.435,284.835Z" transform="translate(-234.847 -39.879)" fill="#263238"/>
      <path id="Path_23191" data-name="Path 23191" d="M320.4,280.16a.36.36,0,1,1,.36.36A.36.36,0,0,1,320.4,280.16Zm.134,1.472h.484v4.623h-.443Z" transform="translate(-234.691 -39.93)" fill="#263238"/>
      <path id="Path_23192" data-name="Path 23192" d="M322.77,279.69h.443v6.569h-.443Z" transform="translate(-234.621 -39.933)" fill="#263238"/>
      <path id="Path_23193" data-name="Path 23193" d="M310.809,324.012l-1.668-2.337a4.914,4.914,0,0,1-.68,0h-2v2.286H306V317h2.5c1.75,0,2.811.875,2.811,2.358a2.142,2.142,0,0,1-1.637,2.183l1.75,2.44Zm-2.348-2.729c1.493,0,2.3-.7,2.3-1.895s-.8-1.9-2.3-1.9h-2v3.8Z" transform="translate(-235.118 -38.827)" fill="#fff"/>
      <path id="Path_23194" data-name="Path 23194" d="M317.193,321.48h-4.479a2.059,2.059,0,0,0,2.2,2.059,2.121,2.121,0,0,0,1.668-.721l.288.329a2.482,2.482,0,0,1-1.967.844,2.554,2.554,0,0,1-2.677-2.646,2.492,2.492,0,1,1,4.973,0S317.193,321.429,317.193,321.48Zm-4.469-.391h4a2,2,0,1,0-4,0Z" transform="translate(-234.933 -38.777)" fill="#fff"/>
      <path id="Path_23195" data-name="Path 23195" d="M317.82,323.333l.227-.4a3.089,3.089,0,0,0,1.874.628c1.1,0,1.544-.381,1.544-.978,0-1.514-3.46-.391-3.46-2.44,0-.783.659-1.421,1.977-1.421a3.223,3.223,0,0,1,1.792.5l-.237.4a2.677,2.677,0,0,0-1.565-.474c-1.03,0-1.462.422-1.462.978,0,1.565,3.449.463,3.449,2.451,0,.844-.731,1.421-2.059,1.421a3.254,3.254,0,0,1-2.08-.669Z" transform="translate(-234.768 -38.776)" fill="#fff"/>
      <path id="Path_23196" data-name="Path 23196" d="M327.613,321.48h-4.479a2.059,2.059,0,0,0,2.2,2.059,2.121,2.121,0,0,0,1.668-.721l.288.329a2.5,2.5,0,0,1-1.967.844,2.564,2.564,0,0,1-2.687-2.646,2.492,2.492,0,0,1,2.5-2.636,2.461,2.461,0,0,1,2.482,2.615S327.613,321.428,327.613,321.48Zm-4.469-.391h3.985a2,2,0,0,0-3.985,0Z" transform="translate(-234.625 -38.776)" fill="#fff"/>
      <path id="Path_23197" data-name="Path 23197" d="M331.588,323.663a1.6,1.6,0,0,1-1.03.371,1.287,1.287,0,0,1-1.411-1.421v-3.4h-.958v-.432h.958V317.65h.494v1.133H331.3v.432h-1.658v3.357c0,.669.329,1.03.968,1.03a1.194,1.194,0,0,0,.813-.288Z" transform="translate(-234.46 -38.808)" fill="#fff"/>
      <path id="Path_23198" data-name="Path 23198" d="M340.8,319.389c0,1.462-1.03,2.337-2.811,2.337h-1.977v2.286H335.5V317h2.512C339.742,317,340.8,317.906,340.8,319.389Zm-.515,0c0-1.215-.8-1.9-2.3-1.9h-1.977v3.789h2C339.485,321.273,340.288,320.583,340.288,319.389Z" transform="translate(-234.243 -38.827)" fill="#fff"/>
      <path id="Path_23199" data-name="Path 23199" d="M345.892,320.656v3.305h-.484v-.927a2,2,0,0,1-1.874.968c-1.164,0-1.874-.6-1.874-1.483s.494-1.462,1.946-1.462h1.781v-.412a1.359,1.359,0,0,0-1.544-1.493,2.708,2.708,0,0,0-1.8.659l-.247-.36a3.223,3.223,0,0,1,2.059-.731,1.771,1.771,0,0,1,2.039,1.936Zm-.5,1.771v-.978h-1.771c-1.081,0-1.462.453-1.462,1.03s.525,1.091,1.452,1.091a1.771,1.771,0,0,0,1.781-1.143Z" transform="translate(-234.06 -38.776)" fill="#fff"/>
      <path id="Path_23200" data-name="Path 23200" d="M347,323.333l.227-.4a3.017,3.017,0,0,0,1.874.628c1.1,0,1.534-.381,1.534-.978,0-1.514-3.449-.391-3.449-2.44,0-.783.659-1.421,1.977-1.421a3.161,3.161,0,0,1,1.781.5l-.227.4a2.7,2.7,0,0,0-1.565-.474c-1.03,0-1.472.422-1.472.978,0,1.565,3.46.463,3.46,2.451,0,.844-.731,1.421-2.059,1.421a3.233,3.233,0,0,1-2.08-.669Z" transform="translate(-233.902 -38.776)" fill="#fff"/>
      <path id="Path_23201" data-name="Path 23201" d="M351.65,323.333l.227-.4a3.089,3.089,0,0,0,1.874.628c1.1,0,1.544-.381,1.544-.978,0-1.514-3.46-.391-3.46-2.44,0-.783.659-1.421,1.977-1.421a3.223,3.223,0,0,1,1.792.5l-.237.4a2.677,2.677,0,0,0-1.565-.474c-1.03,0-1.462.422-1.462.978,0,1.565,3.449.463,3.449,2.451,0,.844-.731,1.421-2.059,1.421a3.254,3.254,0,0,1-2.08-.669Z" transform="translate(-233.764 -38.776)" fill="#fff"/>
      <path id="Path_23202" data-name="Path 23202" d="M364.4,318.75l-1.977,5.21h-.474l-1.75-4.52-1.771,4.52h-.453L356,318.75h.474l1.74,4.654L360,318.75h.422l1.771,4.644,1.75-4.644Z" transform="translate(-233.635 -38.775)" fill="#fff"/>
      <path id="Path_23203" data-name="Path 23203" d="M364.59,321.354A2.605,2.605,0,1,1,367.185,324a2.523,2.523,0,0,1-2.595-2.646Zm4.7,0a2.059,2.059,0,1,0-.554,1.543A2.059,2.059,0,0,0,369.285,321.354Z" transform="translate(-233.38 -38.774)" fill="#fff"/>
      <path id="Path_23204" data-name="Path 23204" d="M373.611,318.72v.484h-.124c-1.153,0-1.843.772-1.843,2.059v2.708h-.494v-5.21h.474V319.9a1.977,1.977,0,0,1,1.987-1.184Z" transform="translate(-233.186 -38.776)" fill="#fff"/>
      <path id="Path_23205" data-name="Path 23205" d="M379.467,316.62v7.4h-.484V322.8a2.317,2.317,0,0,1-2.131,1.266,2.646,2.646,0,0,1,0-5.282,2.327,2.327,0,0,1,2.121,1.246V316.62Zm-.494,4.8a2.059,2.059,0,1,0-.554,1.543A2.059,2.059,0,0,0,378.973,321.418Z" transform="translate(-233.09 -38.838)" fill="#fff"/>
      <path id="Path_23206" data-name="Path 23206" d="M449.965,63.088c0,.144-47.6.268-106.312.268s-106.312-.124-106.312-.268,47.591-.268,106.312-.268S449.965,62.944,449.965,63.088Z" transform="translate(-237.155 -46.366)" fill="#263238"/>
      <path id="Path_23207" data-name="Path 23207" d="M249.149,54.955a2.584,2.584,0,1,1-.753-1.834,2.584,2.584,0,0,1,.753,1.834Z" transform="translate(-236.958 -46.676)" fill="#263238"/>
      <path id="Path_23208" data-name="Path 23208" d="M256.409,54.955a2.584,2.584,0,1,1-.753-1.834,2.584,2.584,0,0,1,.753,1.834Z" transform="translate(-236.742 -46.676)" fill="#263238"/>
      <path id="Path_23209" data-name="Path 23209" d="M263.629,54.955a2.584,2.584,0,1,1-2.554-2.595A2.584,2.584,0,0,1,263.629,54.955Z" transform="translate(-236.528 -46.676)" fill="#263238"/>
      <path id="Path_23210" data-name="Path 23210" d="M450.351,369.8c0-2.2-.1-132.764-.247-322.675l.247.247H237.428l.268-.268c0,121.768,0,234.032-.062,322.675l-.206-.206,212.944.206L237.428,370h-.216v-.216c0-88.643,0-200.907-.051-322.675V46.84H450.619v.247C450.454,237.039,450.351,367.61,450.351,369.8Z" transform="translate(-237.16 -46.84)" fill="#263238"/>
    </g>
    <g id="freepik--Plant--inject-4" transform="translate(410.075 288.131)">
      <path id="Path_23211" data-name="Path 23211" d="M440.538,449.859a3.031,3.031,0,0,0-.175-.422c-.144-.3-.329-.69-.566-1.2a29.688,29.688,0,0,1-1.658-4.829,42.658,42.658,0,0,1,.134-18.637,101.94,101.94,0,0,1,3.46-12.531c1.462-4.438,3.171-9.154,4.551-14.25a55.129,55.129,0,0,0,2.255-16.4c-.216-5.8-1.925-11.584-3.82-17.35s-3.83-11.409-4.417-17.082a26.071,26.071,0,0,1,3.089-15.774c2.5-4.6,5.643-8.546,8-12.624a44.13,44.13,0,0,0,4.809-12.129,45.305,45.305,0,0,0,.3-18.8,35.335,35.335,0,0,0-1.956-6.641,2.572,2.572,0,0,0,.113.443c.1.319.227.741.4,1.277a49.418,49.418,0,0,1,1.215,4.963,45.748,45.748,0,0,1-.484,18.657,43.483,43.483,0,0,1-4.829,11.985c-2.348,4.026-5.5,7.949-8.052,12.6a26.514,26.514,0,0,0-3.223,16.1c.587,5.766,2.543,11.45,4.428,17.206s3.583,11.491,3.8,17.185a54.862,54.862,0,0,1-2.193,16.227c-1.369,5.076-3.089,9.792-4.5,14.251a99.262,99.262,0,0,0-3.4,12.6c-1.586,7.846-1.133,14.477.052,18.781a28.377,28.377,0,0,0,1.771,4.819l.628,1.184a2.152,2.152,0,0,0,.268.391Z" transform="translate(-398.351 -281.18)" fill="#263238"/>
      <path id="Path_23212" data-name="Path 23212" d="M448.053,322.243s4.778-15.28-3.8-24.228a.525.525,0,0,0-.906.268C442.895,300.805,442.318,308.487,448.053,322.243Z" transform="translate(-398.164 -280.686)" fill="#1550a2"/>
      <path id="Path_23213" data-name="Path 23213" d="M445.13,303a13.668,13.668,0,0,0,.319,2.821c.309,1.946.68,4.222,1.091,6.744s.762,4.8,1.03,6.734a14.351,14.351,0,0,0,.5,2.79,11.844,11.844,0,0,0-.093-2.842c-.154-1.74-.463-4.119-.9-6.785s-.885-5-1.267-6.713a13.107,13.107,0,0,0-.69-2.749Z" transform="translate(-398.104 -280.533)" fill="#263238"/>
      <path id="Path_23214" data-name="Path 23214" d="M442.9,357.1s-2.924-15.733-14.683-19.636a.535.535,0,0,0-.68.659C428.313,340.56,431.4,347.623,442.9,357.1Z" transform="translate(-398.626 -279.511)" fill="#1550a2"/>
      <path id="Path_23215" data-name="Path 23215" d="M431.31,341.41a14.149,14.149,0,0,0,1.6,2.337l4.119,5.447c1.534,2.059,2.914,3.892,4.119,5.457a16.745,16.745,0,0,0,1.75,2.234,12.355,12.355,0,0,0-1.4-2.471c-.958-1.472-2.358-3.449-3.974-5.581s-3.089-4.005-4.253-5.344a13.032,13.032,0,0,0-1.956-2.08Z" transform="translate(-398.513 -279.393)" fill="#263238"/>
      <path id="Path_23216" data-name="Path 23216" d="M445.8,395.547s1.781-15.908-8.34-23.054a.535.535,0,0,0-.844.432C436.651,375.489,437.557,383.14,445.8,395.547Z" transform="translate(-398.356 -278.474)" fill="#1550a2"/>
      <path id="Path_23217" data-name="Path 23217" d="M439.27,377.17a13.146,13.146,0,0,0,.855,2.708c.68,1.843,1.472,4.016,2.348,6.4s1.668,4.561,2.337,6.415a14.942,14.942,0,0,0,1.03,2.636,11.572,11.572,0,0,0-.628-2.77c-.484-1.678-1.246-3.985-2.173-6.487s-1.833-4.747-2.523-6.353a13.088,13.088,0,0,0-1.246-2.554Z" transform="translate(-398.277 -278.333)" fill="#263238"/>
      <path id="Path_23218" data-name="Path 23218" d="M437.228,434.118s1.2-15.97-9.164-22.745a.525.525,0,0,0-.824.463C427.364,414.39,428.537,422.009,437.228,434.118Z" transform="translate(-398.634 -277.321)" fill="#1550a2"/>
      <path id="Path_23219" data-name="Path 23219" d="M430,416a15.084,15.084,0,0,0,.958,2.677c.741,1.823,1.617,3.954,2.584,6.312s1.823,4.51,2.564,6.322a13.719,13.719,0,0,0,1.122,2.605,12.274,12.274,0,0,0-.731-2.749c-.546-1.658-1.39-3.933-2.409-6.4s-2-4.675-2.749-6.26A12.077,12.077,0,0,0,430,416Z" transform="translate(-398.552 -277.181)" fill="#263238"/>
      <path id="Path_23220" data-name="Path 23220" d="M454.58,309.086s14.189-7.414,14.467-19.8a.535.535,0,0,0-.834-.453C466.1,290.295,460.264,295.309,454.58,309.086Z" transform="translate(-397.823 -280.956)" fill="#1550a2"/>
      <path id="Path_23221" data-name="Path 23221" d="M466.1,293.41a12.8,12.8,0,0,0-1.771,2.214l-4.005,5.529c-1.493,2.059-2.852,3.933-4.016,5.519A17.5,17.5,0,0,0,454.69,309a11.747,11.747,0,0,0,1.956-2.059c1.122-1.349,2.605-3.264,4.119-5.437s2.924-4.119,3.872-5.643A13.628,13.628,0,0,0,466.1,293.41Z" transform="translate(-397.82 -280.817)" fill="#263238"/>
      <path id="Path_23222" data-name="Path 23222" d="M439.78,340.932s14.642-6.559,15.671-18.915a.525.525,0,0,0-.8-.5C452.424,322.871,446.287,327.526,439.78,340.932Z" transform="translate(-398.262 -279.986)" fill="#1550a2"/>
      <path id="Path_23223" data-name="Path 23223" d="M452.215,326a13.771,13.771,0,0,0-1.895,2.059l-4.335,5.272-4.335,5.272a15.625,15.625,0,0,0-1.761,2.224,12.045,12.045,0,0,0,2.059-1.946c1.2-1.277,2.8-3.089,4.489-5.148s3.171-3.985,4.2-5.4A11.9,11.9,0,0,0,452.215,326Z" transform="translate(-398.259 -279.851)" fill="#263238"/>
      <path id="Path_23224" data-name="Path 23224" d="M447.941,376.609s10.039-12.469,5.334-23.929a.535.535,0,0,0-.947-.093C450.978,354.77,447.642,361.72,447.941,376.609Z" transform="translate(-398.021 -279.069)" fill="#1550a2"/>
      <path id="Path_23225" data-name="Path 23225" d="M452.271,357.6a13.952,13.952,0,0,0-.731,2.739c-.422,1.926-.906,4.18-1.452,6.672l-1.462,6.662a15.834,15.834,0,0,0-.556,2.78,11.13,11.13,0,0,0,.958-2.667c.494-1.689,1.091-4.036,1.647-6.641s1.03-4.994,1.277-6.724a12.818,12.818,0,0,0,.319-2.821Z" transform="translate(-398.016 -278.913)" fill="#263238"/>
      <path id="Path_23226" data-name="Path 23226" d="M438.29,418.308s14.5-6.775,15.321-19.141a.525.525,0,0,0-.8-.484C450.636,400.041,444.581,404.8,438.29,418.308Z" transform="translate(-398.306 -277.697)" fill="#1550a2"/>
      <path id="Path_23227" data-name="Path 23227" d="M450.478,403.16a14.418,14.418,0,0,0-1.864,2.131l-4.232,5.354c-1.6,2-3.027,3.8-4.263,5.334a15.606,15.606,0,0,0-1.709,2.255,11.8,11.8,0,0,0,2.059-1.977c1.184-1.3,2.749-3.14,4.4-5.241s3.089-4.036,4.119-5.467a12.863,12.863,0,0,0,1.493-2.389Z" transform="translate(-398.303 -277.562)" fill="#263238"/>
      <path id="Path_23228" data-name="Path 23228" d="M410.24,356.62V358c.051.968.1,2.265.175,3.882.185,3.418.453,8.176.762,13.87h0c1.03,5.787,3.985,12.212,7.949,18.441,2.9,4.592,5.951,8.773,8.587,12.655a88.8,88.8,0,0,1,6.425,10.636,44.679,44.679,0,0,1,3.017,7.8c.257.958.443,1.7.556,2.214a3.549,3.549,0,0,0,.216.772,6.342,6.342,0,0,0-.1-.8c-.072-.515-.227-1.277-.443-2.245a41.543,41.543,0,0,0-2.862-7.928,83.334,83.334,0,0,0-6.353-10.76c-2.605-3.913-5.643-8.093-8.536-12.665-3.933-6.178-6.868-12.521-7.949-18.225h0c-.4-5.694-.741-10.441-.978-13.849-.134-1.617-.237-2.914-.309-3.882,0-.4-.082-.741-.1-1.03A1.523,1.523,0,0,0,410.24,356.62Z" transform="translate(-399.138 -278.942)" fill="#263238"/>
      <path id="Path_23229" data-name="Path 23229" d="M418.687,392.711s-6.178-14.786,1.586-24.475a.525.525,0,0,1,.927.185C421.889,370.872,423.2,378.471,418.687,392.711Z" transform="translate(-398.957 -278.604)" fill="#1550a2"/>
      <path id="Path_23230" data-name="Path 23230" d="M419.752,373.22a12.808,12.808,0,0,0-.484,2.8c-.216,1.73-.463,4.119-.659,6.806s-.278,5.076-.278,6.837a11.171,11.171,0,0,0,.175,2.832,16.1,16.1,0,0,0,.247-2.821c.134-1.967.288-4.263.453-6.806s.34-4.85.484-6.816A14.343,14.343,0,0,0,419.752,373.22Z" transform="translate(-398.899 -278.45)" fill="#263238"/>
      <g id="Group_10234" data-name="Group 10234" transform="translate(17.4 89.424)" opacity="0.3">
        <path id="Path_23231" data-name="Path 23231" d="M418.687,392.711s-6.178-14.786,1.586-24.475a.525.525,0,0,1,.927.185C421.889,370.872,423.2,378.471,418.687,392.711Z" transform="translate(-416.357 -368.028)"/>
      </g>
      <path id="Path_23232" data-name="Path 23232" d="M437.141,427.284s-4.922-15.239,3.563-24.269a.535.535,0,0,1,.906.257C442.094,405.795,442.742,413.476,437.141,427.284Z" transform="translate(-398.383 -277.571)" fill="#1550a2"/>
      <path id="Path_23233" data-name="Path 23233" d="M439.782,408a12.744,12.744,0,0,0-.71,2.749c-.36,1.709-.793,4.119-1.2,6.724s-.69,5.045-.834,6.8a11.551,11.551,0,0,0,0,2.842,16.612,16.612,0,0,0,.474-2.79c.288-1.946.628-4.232,1.03-6.755s.731-4.8,1.03-6.744a13.838,13.838,0,0,0,.216-2.821Z" transform="translate(-398.346 -277.418)" fill="#263238"/>
      <g id="Group_10235" data-name="Group 10235" transform="translate(37.339 125.282)" opacity="0.3">
        <path id="Path_23234" data-name="Path 23234" d="M437.141,427.284s-4.922-15.239,3.563-24.269a.535.535,0,0,1,.906.257C442.094,405.795,442.742,413.476,437.141,427.284Z" transform="translate(-435.721 -402.853)"/>
      </g>
      <path id="Path_23235" data-name="Path 23235" d="M411.342,375.063s-13.118-9.185-11.79-21.5a.525.525,0,0,1,.875-.35C402.364,354.933,407.512,360.669,411.342,375.063Z" transform="translate(-399.458 -279.047)" fill="#1550a2"/>
      <g id="Group_10236" data-name="Group 10236" transform="translate(0 74.031)" opacity="0.3">
        <path id="Path_23236" data-name="Path 23236" d="M411.342,375.063s-13.118-9.185-11.79-21.5a.525.525,0,0,1,.875-.35C402.364,354.933,407.512,360.669,411.342,375.063Z" transform="translate(-399.458 -353.079)"/>
      </g>
      <path id="Path_23237" data-name="Path 23237" d="M401.88,358a12.8,12.8,0,0,0,1.091,2.615c.741,1.586,1.833,3.748,3.089,6.1s2.492,4.448,3.429,5.921a12.148,12.148,0,0,0,1.668,2.306,15.034,15.034,0,0,0-1.3-2.523c-.947-1.72-2.059-3.748-3.274-5.982l-3.254-6A14.044,14.044,0,0,0,401.88,358Z" transform="translate(-399.386 -278.901)" fill="#263238"/>
      <path id="Path_23238" data-name="Path 23238" d="M432.579,412.337s-15.816-2.471-20.048-14.106a.525.525,0,0,1,.628-.7C415.589,398.231,422.735,401.1,432.579,412.337Z" transform="translate(-399.072 -277.729)" fill="#1550a2"/>
      <g id="Group_10237" data-name="Group 10237" transform="translate(13.422 119.782)" opacity="0.3">
        <path id="Path_23239" data-name="Path 23239" d="M432.579,412.337s-15.816-2.471-20.048-14.106a.525.525,0,0,1,.628-.7C415.589,398.231,422.735,401.1,432.579,412.337Z" transform="translate(-412.494 -397.511)"/>
      </g>
      <path id="Path_23240" data-name="Path 23240" d="M416.52,401.2a12.354,12.354,0,0,0,2.131,1.874c1.369,1.091,3.295,2.554,5.467,4.119s4.2,2.893,5.694,3.8a11.863,11.863,0,0,0,2.512,1.339,14.819,14.819,0,0,0-2.286-1.689l-5.57-3.933-5.56-3.964a14.505,14.505,0,0,0-2.389-1.544Z" transform="translate(-398.952 -277.62)" fill="#263238"/>
      <path id="Path_23241" data-name="Path 23241" d="M450.968,440.18l-4.541,29.757-18.112-.031L422.21,440.18Z" transform="translate(-398.783 -276.464)" fill="#455a64"/>
      <path id="Path_23242" data-name="Path 23242" d="M434.357,449.614a5.055,5.055,0,0,0,.834-2.492,2.687,2.687,0,0,0-1.225-2.554,2.924,2.924,0,0,0-3.038.247,4.428,4.428,0,0,0-1.73,2.729,11.491,11.491,0,0,0-.227,3.367,10.884,10.884,0,0,0,.731,3.429,7.568,7.568,0,0,0,2.059,3,5.859,5.859,0,0,0,3.491,1.462,6.415,6.415,0,0,0,3.624-1.03,11.027,11.027,0,0,0,2.708-2.451,5.962,5.962,0,0,0,1.369-3.264,3.82,3.82,0,0,0-1.287-3.161,2.965,2.965,0,0,0-3.212-.2,3.48,3.48,0,0,0-1.853,2.43,4.644,4.644,0,0,0,2.3,4.706,6.374,6.374,0,0,0,4.376.638,9.885,9.885,0,0,0,3.089-1.225,17.207,17.207,0,0,0,1.75-1.174,2.946,2.946,0,0,0,.556-.484,6.953,6.953,0,0,0-.618.4c-.4.257-1.03.659-1.781,1.091a10.1,10.1,0,0,1-3.089,1.112,6.178,6.178,0,0,1-4.119-.659A4.3,4.3,0,0,1,437,451.21a3.089,3.089,0,0,1,1.648-2.121,2.523,2.523,0,0,1,2.729.165,3.357,3.357,0,0,1,1.1,2.77,5.5,5.5,0,0,1-1.287,3,10.71,10.71,0,0,1-2.574,2.327,5.962,5.962,0,0,1-3.346.978,5.457,5.457,0,0,1-3.192-1.339,7.208,7.208,0,0,1-1.967-2.8,10.491,10.491,0,0,1-.711-3.285,11.1,11.1,0,0,1,.2-3.223,3.985,3.985,0,0,1,1.534-2.481,2.523,2.523,0,0,1,2.584-.257,2.327,2.327,0,0,1,1.03,2.193,4.645,4.645,0,0,1-.752,2.306,6.682,6.682,0,0,1-3.377,2.533,7.4,7.4,0,0,1-3.212.381,8.3,8.3,0,0,1-2.677-.793l.144.113a5.294,5.294,0,0,0,.484.268,6.373,6.373,0,0,0,2.059.608,7.371,7.371,0,0,0,3.336-.319,6.971,6.971,0,0,0,3.583-2.595" transform="translate(-398.709 -276.343)" fill="#263238"/>
    </g>
  </g>
</svg>
