<svg xmlns="http://www.w3.org/2000/svg" width="603.773" height="449.883" viewBox="0 0 603.773 449.883">
  <g id="Tablet_login-rafiki" data-name="Tablet login-rafiki" transform="translate(0 -55)">
    <g id="freepik--background-complete--inject-37" transform="translate(0 55)">
      <rect id="Rectangle_2873" data-name="Rectangle 2873" width="603.773" height="0.302" transform="translate(0 395.35)" fill="#ebebeb"/>
      <rect id="Rectangle_2874" data-name="Rectangle 2874" width="39.994" height="0.302" transform="translate(503.281 414.78)" fill="#ebebeb"/>
      <rect id="Rectangle_2875" data-name="Rectangle 2875" width="10.494" height="0.302" transform="translate(389.47 418.064)" fill="#ebebeb"/>
      <rect id="Rectangle_2876" data-name="Rectangle 2876" width="23.173" height="0.302" transform="translate(478.9 403.574)" fill="#ebebeb"/>
      <rect id="Rectangle_2877" data-name="Rectangle 2877" width="52.154" height="0.302" transform="translate(63.348 405.602)" fill="#ebebeb"/>
      <rect id="Rectangle_2878" data-name="Rectangle 2878" width="7.644" height="0.302" transform="translate(126.261 405.602)" fill="#ebebeb"/>
      <rect id="Rectangle_2879" data-name="Rectangle 2879" width="113.123" height="0.302" transform="translate(158.756 410.698)" fill="#ebebeb"/>
      <path id="Path_22898" data-name="Path 22898" d="M278.258,396.494H45.093a6.9,6.9,0,0,1-6.883-6.9V61.835A6.9,6.9,0,0,1,45.093,55H278.258a6.9,6.9,0,0,1,6.9,6.9V389.6A6.9,6.9,0,0,1,278.258,396.494ZM45.093,55.242a6.593,6.593,0,0,0-6.581,6.593V389.6a6.593,6.593,0,0,0,6.581,6.593H278.258a6.605,6.605,0,0,0,6.593-6.593V61.835a6.605,6.605,0,0,0-6.593-6.593Z" transform="translate(7.93 -55)" fill="#ebebeb"/>
      <path id="Path_22899" data-name="Path 22899" d="M494.572,396.494H261.4a6.907,6.907,0,0,1-6.9-6.9V61.835A6.907,6.907,0,0,1,261.4,55H494.572a6.9,6.9,0,0,1,6.871,6.835V389.6A6.9,6.9,0,0,1,494.572,396.494ZM261.4,55.242a6.605,6.605,0,0,0-6.593,6.593V389.6a6.605,6.605,0,0,0,6.593,6.593H494.572a6.605,6.605,0,0,0,6.593-6.593V61.835a6.605,6.605,0,0,0-6.593-6.593Z" transform="translate(52.82 -55)" fill="#ebebeb"/>
      <path id="Path_22900" data-name="Path 22900" d="M81.572,371.567c-.29-3.454.181-7.922,4.214-9.25,6.823-2.246,10.868-7.535,10.638-13.512s6.955-11.8,12.341-6.195,4.673-4.311,11.858-6.714,13.283,3.429,11.3,8.779,5.132,8.67,13.621,4.13,17.823,3.719,16.024,10.18-.326,7.185,5.048,5.035c4.347-1.739,11.448,1.908,12.232,7.547Z" transform="translate(16.915 3.183)" fill="#e0e0e0"/>
      <path id="Path_22901" data-name="Path 22901" d="M362.09,370.292c-.326-2.729-.181-6.714,3.2-7.837,5.3-1.751,8.453-5.857,8.272-10.494s5.4-9.153,9.576-4.83,3.623-3.345,9.2-5.217,10.312,2.669,8.779,6.811,3.985,6.738,10.566,3.212,13.838,2.886,12.45,7.909-.254,5.579,3.912,3.9c3.538-1.413,9.407,1.775,9.54,6.521Z" transform="translate(75.126 4.458)" fill="#e0e0e0"/>
      <path id="Path_22902" data-name="Path 22902" d="M412.2,374.14H288.175c-1.739-5.82,2.765-12.8,7.68-13.778,6.038-1.208,12.075-11.834,12.4-18.6s11.182-27.568,28.088-14.72,11.774,1.884,23.994-1.727,19.949,6.774,14.587,14.575c0,0,12.281-3.079,17.34,8.392s0,18.6,0,18.6S407.759,366.484,412.2,374.14Z" transform="translate(59.73 0.61)" fill="#e0e0e0"/>
      <path id="Path_22903" data-name="Path 22903" d="M213.222,100.016a5.832,5.832,0,0,0-7.547-5.591,12.414,12.414,0,0,0-12.232-14.14,11.762,11.762,0,0,0-2.27.217,10.8,10.8,0,0,0-20.021,5.458h-.181a9.95,9.95,0,1,0,0,19.9h36.54a5.82,5.82,0,0,0,5.712-5.845Z" transform="translate(33.419 -50.785)" fill="#f5f5f5"/>
      <path id="Path_22904" data-name="Path 22904" d="M392.442,128.5a5.832,5.832,0,0,0-7.5-5.591,12.329,12.329,0,0,0-12.22-14.14,11.8,11.8,0,0,0-2.282.217,10.8,10.8,0,0,0-20.021,5.458h-.169a9.95,9.95,0,0,0,0,19.9h36.528a5.82,5.82,0,0,0,5.663-5.845Z" transform="translate(70.628 -44.874)" fill="#f5f5f5"/>
      <path id="Path_22905" data-name="Path 22905" d="M279.443,112.884a3.623,3.623,0,0,0-3.623-3.623,3.719,3.719,0,0,0-1.038.145,6.678,6.678,0,0,0,.085-1.111,7.68,7.68,0,0,0-7.68-7.68,7.79,7.79,0,0,0-1.413.133,6.714,6.714,0,0,0-12.462,3.393H253.2a6.183,6.183,0,1,0,0,12.365h22.774A3.623,3.623,0,0,0,279.443,112.884Z" transform="translate(51.268 -46.179)" fill="#f5f5f5"/>
      <path id="Path_22906" data-name="Path 22906" d="M436.27,107.012a3.623,3.623,0,0,0-3.623-3.623,3.272,3.272,0,0,0-1.039.157,8.441,8.441,0,0,0,.073-1.123,7.668,7.668,0,0,0-7.668-7.668,7.922,7.922,0,0,0-1.425.121,6.7,6.7,0,0,0-12.438,3.393h-.133a6.195,6.195,0,0,0,0,12.377h22.714a3.623,3.623,0,0,0,3.538-3.635Z" transform="translate(83.868 -47.396)" fill="#f5f5f5"/>
      <path id="Path_22907" data-name="Path 22907" d="M110.491,125.162a3.623,3.623,0,0,0-3.623-3.623,3.272,3.272,0,0,0-1.039.157,8.619,8.619,0,0,0,.085-1.123,7.68,7.68,0,0,0-7.68-7.68,7.923,7.923,0,0,0-1.425.133,6.7,6.7,0,0,0-12.438,3.393h-.109a6.183,6.183,0,1,0,0,12.365h22.7a3.623,3.623,0,0,0,3.526-3.623Z" transform="translate(16.205 -43.629)" fill="#f5f5f5"/>
      <path id="Path_22908" data-name="Path 22908" d="M386.255,215.668a11.107,11.107,0,0,0,.338-2.258c.278-4.709,4.83-3.961,8.586-4.6,2.983-.5-4.915-8.03,1.1-10.469a5.229,5.229,0,0,0,2.91-2.017,3.429,3.429,0,0,0-1.316-4.178A8.127,8.127,0,0,0,393.308,191c-.978-1.208-.181-2.983.773-4.2s2.113-2.608,1.751-4.106c-.543-2.27-3.719-2.415-6.038-1.908-.845-1.377-.821-3.091-1.208-4.649s-1.654-3.188-3.248-2.995-2.415,1.884-3.912,2.234c-1.715.4-3.2-1.111-4.54-2.246s-3.7-1.848-4.625-.35c-.555.894-.229,2.149-.8,3.031-1,1.534-3.369.58-4.83-.507s-3.816-2.065-4.83-.568a6.5,6.5,0,0,0-.568,1.582c-.7,2-2.874,3.007-4.564,4.3s-3.031,3.852-1.594,5.422c.7.773,1.944,1.087,2.294,2.077.435,1.208-.821,2.343-1.823,3.188-1.654,1.413-1.956,5.651.242,6.8.918.5,2.27.64,2.5,1.654s-.725,1.618-1.34,2.318a4.383,4.383,0,0,0,1.34,6.509c.531.254,1.208.459,1.377,1.014a2.041,2.041,0,0,1-.133,1.208,6.23,6.23,0,0,0-.205,2.415,1.087,1.087,0,0,0,.278.749,1.207,1.207,0,0,0,.7.193c3.176.145,4.709-.978,6.642,1.775a2.307,2.307,0,0,0,.664.7,2.162,2.162,0,0,0,.869.229c2.186.169,3.623-1.208,5.6-1.437,2.765-.362,3.357,1.075,5.8,2.21C383.671,219.4,385.531,218.289,386.255,215.668Z" transform="translate(73.517 -30.733)" fill="#ebebeb"/>
      <path id="Path_22909" data-name="Path 22909" d="M355.987,212.409a11.115,11.115,0,0,0,.338-2.258c.278-4.709,4.77-3.961,8.586-4.6,2.983-.5-4.915-8.03,1.1-10.469a5.337,5.337,0,0,0,2.91-2.017,3.429,3.429,0,0,0-1.316-4.178,8.151,8.151,0,0,0-4.564-1.208c-.978-1.208-.181-2.983.761-4.2s2.113-2.608,1.763-4.106c-.543-2.27-3.719-2.355-6.038-1.908-.845-1.377-.821-3.091-1.208-4.649s-1.654-3.188-3.248-2.995-2.415,1.884-3.912,2.234c-1.715.4-3.2-1.111-4.54-2.246s-3.7-1.86-4.625-.35c-.555.894-.229,2.149-.8,3.031-1,1.534-3.369.58-4.83-.507s-3.816-2.077-4.83-.568a6.5,6.5,0,0,0-.568,1.582c-.7,2-2.874,3.007-4.564,4.3s-3.031,3.84-1.594,5.422c.7.773,1.944,1.087,2.294,2.077.435,1.208-.821,2.343-1.823,3.188-1.666,1.413-1.968,5.639.229,6.8.93.5,2.282.64,2.512,1.654s-.725,1.618-1.34,2.318a4.383,4.383,0,0,0,1.34,6.509c.531.254,1.208.459,1.365,1.014a2.041,2.041,0,0,1-.121,1.208,6.23,6.23,0,0,0-.205,2.355,1.087,1.087,0,0,0,.278.749,1.207,1.207,0,0,0,.7.193c3.176.145,4.709-.978,6.642,1.775a2.173,2.173,0,0,0,.664.7,1.932,1.932,0,0,0,.869.217c2.186.181,3.623-1.208,5.6-1.425,2.765-.362,3.357,1.063,5.8,2.21C353.4,216.177,355.263,215.03,355.987,212.409Z" transform="translate(67.233 -31.423)" fill="#ebebeb"/>
      <path id="Path_22910" data-name="Path 22910" d="M353.065,193.141a11.378,11.378,0,0,0,.338-2.27c.278-4.709,4.83-3.961,8.6-4.6,2.983-.5-4.927-8.03,1.1-10.469a5.241,5.241,0,0,0,2.9-2.017,3.429,3.429,0,0,0-1.3-4.178,8.187,8.187,0,0,0-4.577-1.208c-.978-1.208-.181-2.983.773-4.2s2.113-2.608,1.751-4.106c-.543-2.27-3.719-2.355-6.038-1.908-.845-1.377-.833-3.091-1.208-4.649s-1.654-3.188-3.248-2.995-2.415,1.884-3.9,2.234c-1.715.411-3.2-1.111-4.552-2.246s-3.7-1.848-4.625-.35c-.555.894-.217,2.149-.8,3.031-1,1.534-3.369.58-4.83-.507s-3.816-2.065-4.83-.555a6.243,6.243,0,0,0-.568,1.57c-.7,2-2.874,3.007-4.565,4.3s-3.031,3.852-1.594,5.422c.7.773,1.944,1.087,2.294,2.077.447,1.208-.821,2.343-1.823,3.188-1.654,1.413-1.956,5.651.242,6.811.918.483,2.27.628,2.5,1.642s-.725,1.618-1.34,2.331a4.371,4.371,0,0,0,1.34,6.5c.531.254,1.208.459,1.377,1.014a2.089,2.089,0,0,1-.133,1.208,6.7,6.7,0,0,0-.205,2.355,1.087,1.087,0,0,0,.29.737,1.123,1.123,0,0,0,.688.193c3.176.145,4.709-.978,6.642,1.775a2.5,2.5,0,0,0,.664.712,2.209,2.209,0,0,0,.882.217c2.174.181,3.623-1.208,5.591-1.437,2.777-.35,3.357,1.075,5.8,2.222C350.481,196.86,352.389,195.749,353.065,193.141Z" transform="translate(66.629 -35.423)" fill="#ebebeb"/>
      <path id="Path_22911" data-name="Path 22911" d="M333.125,202.73a11.111,11.111,0,0,0,.338-2.27c.278-4.7,4.83-3.961,8.6-4.6,2.983-.5-4.927-8.03,1.1-10.457a5.325,5.325,0,0,0,2.9-2.029,3.405,3.405,0,0,0-1.316-4.166,7.934,7.934,0,0,0-4.565-1.147c-.978-1.208-.181-2.995.773-4.214s2.113-2.6,1.751-4.106c-.543-2.27-3.719-2.343-6.038-1.908-.845-1.365-.833-3.079-1.208-4.637s-1.654-3.2-3.248-3.007-2.415,1.9-3.9,2.234c-1.715.411-3.2-1.111-4.552-2.246s-3.7-1.848-4.625-.35c-.555.894-.217,2.149-.8,3.031-1,1.534-3.369.58-4.83-.507s-3.816-2.065-4.83-.555a6.242,6.242,0,0,0-.568,1.57c-.7,2-2.874,3.007-4.565,4.3s-3.031,3.852-1.594,5.422c.7.773,1.944,1.087,2.294,2.077.447,1.208-.821,2.343-1.823,3.188-1.654,1.425-1.956,5.651.242,6.811.918.483,2.27.628,2.5,1.654s-.725,1.618-1.34,2.318a4.371,4.371,0,0,0,1.34,6.5c.531.254,1.208.459,1.377,1.014a2.089,2.089,0,0,1-.133,1.208,6.7,6.7,0,0,0-.205,2.355,1.074,1.074,0,0,0,.278.737,1.208,1.208,0,0,0,.7.193c3.176.145,4.709-.978,6.642,1.787a2.414,2.414,0,0,0,.664.7,2.162,2.162,0,0,0,.882.217c2.174.181,3.623-1.208,5.591-1.437,2.777-.35,3.357,1.075,5.8,2.222C330.541,206.45,332.377,205.339,333.125,202.73Z" transform="translate(62.491 -33.42)" fill="#ebebeb"/>
      <path id="Path_22912" data-name="Path 22912" d="M312.979,198.29a11.108,11.108,0,0,0,.338-2.258c.278-4.709,4.77-3.961,8.586-4.6,2.983-.5-4.915-8.042,1.1-10.469a5.289,5.289,0,0,0,2.91-2.029,3.417,3.417,0,0,0-1.316-4.166,8.151,8.151,0,0,0-4.565-1.147c-.978-1.208-.181-2.983.761-4.2s2.113-2.608,1.763-4.106c-.555-2.27-3.719-2.415-6.038-1.908-.845-1.377-.821-3.091-1.208-4.649s-1.654-3.188-3.248-2.995-2.415,1.884-3.912,2.234c-1.715.4-3.2-1.111-4.54-2.258s-3.707-1.848-4.625-.338c-.555.894-.229,2.137-.809,3.031-.99,1.521-3.369.58-4.83-.507s-3.816-2.077-4.83-.568a6.325,6.325,0,0,0-.568,1.582c-.7,2-2.874,3.007-4.565,4.287s-3.031,3.852-1.594,5.434c.7.773,1.944,1.087,2.294,2.077.435,1.208-.821,2.343-1.823,3.188-1.666,1.413-1.968,5.639.229,6.8.93.483,2.282.64,2.512,1.654s-.725,1.618-1.34,2.318A4.383,4.383,0,0,0,285,191.2c.531.254,1.208.459,1.365,1.014a2.041,2.041,0,0,1-.121,1.208,6.461,6.461,0,0,0-.217,2.355.845.845,0,0,0,.99.942c3.176.145,4.7-.99,6.642,1.775a2.053,2.053,0,0,0,.664.7,1.932,1.932,0,0,0,.869.217c2.186.181,3.623-1.208,5.6-1.437,2.765-.35,3.357,1.075,5.8,2.222C310.4,202.022,312.255,200.911,312.979,198.29Z" transform="translate(58.305 -34.342)" fill="#ebebeb"/>
      <path id="Path_22913" data-name="Path 22913" d="M311.545,218.258a9.262,9.262,0,0,0,.278-1.787c.217-3.7,3.755-3.115,6.762-3.623,2.343-.4-3.876-6.328.857-8.248a4.2,4.2,0,0,0,2.294-1.594,2.693,2.693,0,0,0-1.038-3.285,6.376,6.376,0,0,0-3.623-.906c-.773-.93-.145-2.415.6-3.309s1.666-2.053,1.389-3.236c-.435-1.787-2.934-1.848-4.734-1.5a13.2,13.2,0,0,1-.978-3.623c-.326-1.208-1.292-2.512-2.56-2.415s-1.908,1.473-3.067,1.751c-1.352.326-2.524-.869-3.623-1.775s-2.91-1.449-3.623-.266c-.435.7-.181,1.691-.628,2.415-.8,1.208-2.657.459-3.816-.4s-3.007-1.63-3.816-.435a4.829,4.829,0,0,0-.459,1.208c-.543,1.582-2.258,2.415-3.623,3.393s-2.415,3.031-1.208,4.263c.555.616,1.534.857,1.811,1.642s-.652,1.835-1.437,2.512c-1.3,1.111-1.546,4.444.181,5.349.725.386,1.8.507,1.968,1.3s-.568,1.28-1.051,1.823a3.441,3.441,0,0,0,1.051,5.12c.423.205.93.362,1.087.8a1.715,1.715,0,0,1-.1.978,5.011,5.011,0,0,0-.169,1.848.809.809,0,0,0,.229.58.845.845,0,0,0,.543.157c2.5.109,3.707-.773,5.229,1.4a1.9,1.9,0,0,0,.519.555,1.521,1.521,0,0,0,.688.169c1.727.145,2.85-.93,4.42-1.123,2.174-.278,2.632.845,4.552,1.739C309.517,221.192,310.978,220.275,311.545,218.258Z" transform="translate(59.413 -28.275)" fill="#ebebeb"/>
      <path id="Path_22914" data-name="Path 22914" d="M301.415,212.409a11.106,11.106,0,0,0,.338-2.258c.29-4.709,4.77-3.961,8.6-4.6,2.983-.5-4.927-8.03,1.1-10.469a5.3,5.3,0,0,0,2.9-2.017,3.429,3.429,0,0,0-1.3-4.178,8.187,8.187,0,0,0-4.577-1.208c-.978-1.208-.181-2.983.773-4.2s2.113-2.608,1.751-4.106c-.543-2.27-3.719-2.355-6.038-1.908-.845-1.377-.833-3.091-1.208-4.649s-1.654-3.188-3.248-2.995-2.415,1.884-3.9,2.234c-1.715.4-3.2-1.111-4.552-2.246s-3.7-1.86-4.625-.35c-.555.894-.217,2.149-.8,3.031-1,1.534-3.369.58-4.83-.507s-3.816-2.077-4.83-.568A6.5,6.5,0,0,0,276.4,173c-.7,2-2.862,3.007-4.552,4.3s-3.043,3.84-1.606,5.422c.7.773,1.944,1.087,2.294,2.077.447,1.208-.821,2.343-1.823,3.188-1.654,1.413-1.956,5.639.242,6.8.918.5,2.27.64,2.5,1.654s-.725,1.618-1.328,2.318a4.371,4.371,0,0,0,1.328,6.509c.531.254,1.208.459,1.377,1.014a2.041,2.041,0,0,1-.133,1.208,6.761,6.761,0,0,0-.205,2.355,1.087,1.087,0,0,0,.29.749,1.123,1.123,0,0,0,.688.193c3.176.145,4.709-.978,6.641,1.775a2.307,2.307,0,0,0,.664.7,2.016,2.016,0,0,0,.882.217c2.174.181,3.623-1.208,5.6-1.425,2.765-.362,3.345,1.063,5.784,2.21C298.843,216.177,300.691,215.03,301.415,212.409Z" transform="translate(55.909 -31.423)" fill="#ebebeb"/>
      <path id="Path_22915" data-name="Path 22915" d="M333.125,179.008a11.111,11.111,0,0,0,.338-2.258c.278-4.709,4.83-3.961,8.6-4.6,2.983-.5-4.927-8.03,1.1-10.469a5.241,5.241,0,0,0,2.9-2.017,3.417,3.417,0,0,0-1.316-4.178,8.127,8.127,0,0,0-4.565-1.147c-.978-1.208-.181-2.983.773-4.2s2.113-2.608,1.751-4.106c-.543-2.27-3.719-2.415-6.038-1.908-.845-1.377-.833-3.091-1.208-4.649s-1.654-3.188-3.248-2.995-2.415,1.884-3.9,2.234c-1.715.411-3.2-1.111-4.552-2.246s-3.7-1.848-4.625-.35c-.555.894-.217,2.149-.8,3.031-1,1.534-3.369.58-4.83-.507s-3.816-2.065-4.83-.568a6.5,6.5,0,0,0-.568,1.582c-.7,2-2.874,3.007-4.565,4.3s-3.031,3.852-1.594,5.422c.7.773,1.944,1.087,2.294,2.077.447,1.208-.821,2.343-1.823,3.188-1.654,1.413-1.956,5.651.242,6.8.918.5,2.27.64,2.5,1.654s-.725,1.618-1.34,2.318a4.383,4.383,0,0,0,1.34,6.509c.531.254,1.208.459,1.377,1.014a2.089,2.089,0,0,1-.133,1.208,6.7,6.7,0,0,0-.205,2.415,1.074,1.074,0,0,0,.278.737,1.208,1.208,0,0,0,.7.193c3.176.145,4.709-.978,6.642,1.775a2.5,2.5,0,0,0,.664.712,2.161,2.161,0,0,0,.882.217c2.174.181,3.623-1.208,5.591-1.437,2.777-.362,3.357,1.075,5.8,2.222C330.541,182.74,332.377,181.629,333.125,179.008Z" transform="translate(62.491 -38.341)" fill="#ebebeb"/>
      <path id="Path_22916" data-name="Path 22916" d="M359.015,180.351a11.111,11.111,0,0,0,.338-2.27c.278-4.7,4.77-3.961,8.6-4.589,2.983-.507-4.927-8.042,1.1-10.469a5.325,5.325,0,0,0,2.9-2.029,3.405,3.405,0,0,0-1.316-4.166,7.933,7.933,0,0,0-4.564-1.208c-.978-1.208-.181-2.995.773-4.214s2.113-2.6,1.751-4.106c-.543-2.27-3.719-2.343-6.038-1.908-.845-1.365-.833-3.079-1.208-4.637s-1.654-3.2-3.248-2.995-2.415,1.884-3.9,2.222c-1.715.411-3.2-1.111-4.552-2.246s-3.7-1.848-4.625-.35c-.555.894-.217,2.149-.8,3.031-1,1.534-3.369.58-4.83-.507s-3.816-2.065-4.83-.555a6.245,6.245,0,0,0-.568,1.57c-.7,2-2.874,3.007-4.565,4.3s-3.031,3.852-1.594,5.422c.7.773,1.944,1.087,2.294,2.077.447,1.208-.821,2.343-1.823,3.2-1.654,1.413-1.956,5.639.242,6.8.918.483,2.27.628,2.5,1.654s-.724,1.618-1.34,2.318a4.371,4.371,0,0,0,1.34,6.5c.531.254,1.208.471,1.377,1.014a2.077,2.077,0,0,1-.133,1.208,6.737,6.737,0,0,0-.205,2.355,1.05,1.05,0,0,0,.278.737,1.208,1.208,0,0,0,.7.193c3.176.145,4.709-.978,6.642,1.787a2.415,2.415,0,0,0,.664.7,1.98,1.98,0,0,0,.882.217c2.174.181,3.623-1.208,5.591-1.437,2.777-.35,3.357,1.075,5.8,2.222C356.431,184.07,358.291,182.983,359.015,180.351Z" transform="translate(67.864 -38.078)" fill="#ebebeb"/>
      <path id="Path_22917" data-name="Path 22917" d="M374.749,190.939a11.107,11.107,0,0,0,.338-2.258c.278-4.709,4.83-3.961,8.586-4.6,2.983-.5-4.915-8.03,1.1-10.469a5.277,5.277,0,0,0,2.91-2.017,3.43,3.43,0,0,0-1.316-4.178,8.151,8.151,0,0,0-4.564-1.208c-.978-1.208-.181-2.983.761-4.2s2.113-2.608,1.751-4.106c-.543-2.27-3.707-2.355-6.038-1.908-.845-1.377-.833-3.091-1.208-4.649s-1.642-3.188-3.248-2.995-2.415,1.884-3.9,2.234c-1.715.4-3.2-1.111-4.54-2.246s-3.707-1.848-4.625-.35c-.555.894-.229,2.149-.809,3.031-.99,1.534-3.369.58-4.83-.507s-3.816-2.065-4.83-.568a6.533,6.533,0,0,0-.58,1.582c-.688,2-2.862,3.007-4.552,4.3s-3.031,3.84-1.606,5.422c.712.773,1.956,1.087,2.306,2.077.435,1.208-.821,2.343-1.823,3.188-1.666,1.413-1.968,5.651.229,6.8.93.5,2.282.64,2.512,1.654s-.725,1.618-1.34,2.318a4.359,4.359,0,0,0,1.34,6.509c.519.254,1.208.459,1.365,1.014a2.041,2.041,0,0,1-.121,1.208,6.484,6.484,0,0,0-.217,2.415,1.087,1.087,0,0,0,.29.749,1.208,1.208,0,0,0,.7.193c3.176.145,4.7-.978,6.641,1.775a2.053,2.053,0,0,0,.664.7,2.113,2.113,0,0,0,.869.229c2.186.169,3.623-1.208,5.6-1.437,2.765-.362,3.357,1.075,5.784,2.21C372.165,194.67,374.025,193.559,374.749,190.939Z" transform="translate(71.125 -35.878)" fill="#ebebeb"/>
      <path id="Path_22918" data-name="Path 22918" d="M379.718,201.581s-7.946,11.218-10.687,14.78-16.423,25.745-18.294,40.417c-.193,1.57-.386,2.91-.58,4.094,5.881,38.871,4.963,110,4.758,122.167H336.259c-.181-13.73-1.763-139.242-2.343-143.07-.628-4.057-8.453-19.5-20.528-25.841S291,186.789,291,186.789h3.84s7.125,12.872,17.256,19.985a38.1,38.1,0,0,0,4.565,2.7,64.81,64.81,0,0,1,4.021-22.69l2.077,1.92c-2.8,11.46-2.415,18.8-1.582,23.016a41.709,41.709,0,0,1,10.482,7.016c10.506-13.669,16.41-44.921,16.41-44.921l2.693,1.461a157.886,157.886,0,0,1-3.478,19.176c-1.968,8.091-7.765,23.318-10.457,30.189a71.583,71.583,0,0,1,7.946,14.9,6.2,6.2,0,0,1,1.014-1.208c6.847-6.183,19.707-35.429,19.707-35.429,3.115-6.8-1.642-24.646-1.642-24.646h3.623l1.606,15.614,9.044-9.866,1.642,1.377-9.588,12.317-4.927,15.614,12.872-14.249Z" transform="translate(60.396 -30.34)" fill="#e6e6e6"/>
      <path id="Path_22919" data-name="Path 22919" d="M85.4,248.6a7.981,7.981,0,0,1-.266-1.739c-.217-3.623-3.623-3.031-6.593-3.526-2.294-.374,3.768-6.159-.845-8.03a4.07,4.07,0,0,1-2.222-1.546,2.632,2.632,0,0,1,1-3.212,6.255,6.255,0,0,1,3.5-.869c.761-.918.145-2.294-.58-3.236s-1.63-1.992-1.352-3.152c.423-1.739,2.85-1.8,4.613-1.461a12.909,12.909,0,0,0,.942-3.562c.326-1.208,1.208-2.415,2.5-2.294s1.86,1.437,2.995,1.715c1.316.3,2.415-.857,3.49-1.727s2.838-1.425,3.55-.278c.423.688.169,1.654.616,2.331.761,1.208,2.584.447,3.707-.386s2.934-1.594,3.719-.435a4.829,4.829,0,0,1,.447,1.208c.531,1.546,2.2,2.306,3.49,3.3s2.331,2.958,1.208,4.166c-.543.592-1.5.833-1.763,1.594-.338.942.628,1.8,1.4,2.415,1.208,1.087,1.5,4.323-.181,5.217-.712.374-1.751.483-1.92,1.268s.555,1.208,1.026,1.775a3.369,3.369,0,0,1-1.026,5c-.411.193-.906.35-1.051.773a1.509,1.509,0,0,0,.1.942,5.059,5.059,0,0,1,.157,1.811.821.821,0,0,1-.217.555.845.845,0,0,1-.543.157c-2.415.109-3.623-.749-5.1,1.365a1.679,1.679,0,0,1-.507.543,1.739,1.739,0,0,1-.664.169c-1.678.133-2.765-.918-4.3-1.111-2.125-.266-2.572.833-4.444,1.7C87.369,251.461,85.944,250.6,85.4,248.6Z" transform="translate(15.623 -21.786)" fill="#ebebeb"/>
      <path id="Path_22920" data-name="Path 22920" d="M108.62,246.106a8.778,8.778,0,0,1-.266-1.739c-.205-3.623-3.623-3.031-6.581-3.526-2.294-.374,3.768-6.158-.845-8.03a4.142,4.142,0,0,1-2.234-1.582,2.62,2.62,0,0,1,1.014-3.2,6.146,6.146,0,0,1,3.5-.882c.749-.918.133-2.294-.592-3.236s-1.618-1.992-1.34-3.152c.411-1.739,2.85-1.8,4.6-1.461a12.523,12.523,0,0,0,.954-3.623c.314-1.208,1.208-2.415,2.488-2.294s1.872,1.449,3.007,1.715c1.316.3,2.415-.857,3.478-1.727s2.838-1.425,3.55-.278c.435.688.169,1.654.616,2.331.773,1.208,2.584.447,3.719-.386s2.922-1.594,3.719-.435a4.829,4.829,0,0,1,.435,1.208c.531,1.546,2.2,2.306,3.5,3.3s2.331,2.958,1.208,4.166c-.543.592-1.5.833-1.775,1.594-.326.942.64,1.8,1.4,2.415,1.28,1.087,1.509,4.323-.181,5.217-.7.374-1.739.483-1.92,1.268s.555,1.208,1.026,1.775a3.357,3.357,0,0,1-1.026,5c-.4.193-.894.35-1.051.773a1.594,1.594,0,0,0,.1.942,5.059,5.059,0,0,1,.169,1.811.881.881,0,0,1-.229.568.858.858,0,0,1-.531.145c-2.415.109-3.623-.749-5.1,1.365a1.268,1.268,0,0,1-1.208.712c-1.666.133-2.765-.918-4.3-1.111-2.113-.266-2.572.833-4.432,1.7C110.6,248.968,109.175,248.134,108.62,246.106Z" transform="translate(20.443 -22.323)" fill="#ebebeb"/>
      <path id="Path_22921" data-name="Path 22921" d="M110.86,231.311a8.089,8.089,0,0,1-.266-1.739c-.217-3.623-3.623-3.031-6.593-3.526-2.282-.386,3.78-6.158-.833-8.03a4.057,4.057,0,0,1-2.234-1.558,2.632,2.632,0,0,1,1-3.2,6.267,6.267,0,0,1,3.514-.869c.749-.918.133-2.294-.592-3.236s-1.618-1.992-1.34-3.152c.411-1.739,2.85-1.8,4.6-1.461a12.523,12.523,0,0,0,.954-3.623c.314-1.208,1.208-2.415,2.488-2.294s1.86,1.437,2.995,1.715,2.415-.857,3.49-1.739,2.838-1.413,3.55-.266c.423.688.169,1.654.616,2.331.761,1.208,2.584.447,3.719-.386s2.922-1.594,3.719-.435a4.951,4.951,0,0,1,.435,1.208c.531,1.546,2.2,2.306,3.5,3.3s2.318,2.958,1.208,4.166c-.531.592-1.485.833-1.763,1.594s.64,1.8,1.4,2.415c1.28,1.075,1.509,4.323-.181,5.217-.7.374-1.739.483-1.92,1.208s.555,1.208,1.026,1.775a3.345,3.345,0,0,1-1.026,4.987c-.4.205-.906.362-1.051.785a1.594,1.594,0,0,0,.1.942,4.758,4.758,0,0,1,.157,1.8.773.773,0,0,1-.217.568.809.809,0,0,1-.531.157c-2.415.109-3.623-.761-5.1,1.365a1.824,1.824,0,0,1-.507.543,1.63,1.63,0,0,1-.676.157c-1.666.145-2.765-.906-4.3-1.1-2.125-.266-2.572.821-4.444,1.7C112.84,234.173,111.415,233.315,110.86,231.311Z" transform="translate(20.908 -25.388)" fill="#ebebeb"/>
      <path id="Path_22922" data-name="Path 22922" d="M126.158,238.66a8.092,8.092,0,0,1-.266-1.739c-.217-3.623-3.623-3.043-6.593-3.526-2.282-.386,3.78-6.171-.833-8.03a4.058,4.058,0,0,1-2.234-1.558,2.632,2.632,0,0,1,.966-3.14,6.279,6.279,0,0,1,3.514-.882c.749-.906.133-2.294-.592-3.224s-1.618-1.992-1.34-3.152c.411-1.739,2.85-1.8,4.6-1.461a12.523,12.523,0,0,0,.954-3.562c.314-1.208,1.208-2.415,2.488-2.306s1.86,1.449,2.995,1.715,2.415-.845,3.49-1.727,2.838-1.413,3.55-.266c.423.688.169,1.654.616,2.331.761,1.208,2.584.447,3.719-.386s2.922-1.594,3.719-.435a4.951,4.951,0,0,1,.435,1.208c.531,1.534,2.2,2.306,3.5,3.3s2.318,2.958,1.208,4.154c-.543.6-1.485.845-1.763,1.606-.338.942.64,1.787,1.4,2.415,1.28,1.087,1.509,4.335-.181,5.229-.7.362-1.739.483-1.92,1.208s.555,1.208,1.026,1.775a3.345,3.345,0,0,1-1.026,4.987c-.4.193-.906.35-1.051.773a1.63,1.63,0,0,0,.1.954,4.758,4.758,0,0,1,.157,1.8.8.8,0,0,1-.217.568.894.894,0,0,1-.531.157c-2.415.109-3.623-.761-5.1,1.365a1.642,1.642,0,0,1-.507.531,1.473,1.473,0,0,1-.676.169c-1.666.145-2.765-.906-4.3-1.1-2.125-.266-2.572.821-4.444,1.7C128.138,241.51,126.713,240.665,126.158,238.66Z" transform="translate(24.085 -23.838)" fill="#ebebeb"/>
      <path id="Path_22923" data-name="Path 22923" d="M141.62,235.281a10.135,10.135,0,0,1-.266-1.739c-.205-3.623-3.623-3.043-6.581-3.526-2.294-.386,3.768-6.171-.845-8.042a4.082,4.082,0,0,1-2.234-1.546,2.62,2.62,0,0,1,1.014-3.2,6.146,6.146,0,0,1,3.5-.882c.749-.918.145-2.294-.592-3.224s-1.618-2-1.34-3.152c.411-1.739,2.85-1.8,4.6-1.461a12.63,12.63,0,0,0,.954-3.623c.314-1.208,1.208-2.415,2.5-2.306s1.86,1.449,2.995,1.715c1.316.314,2.415-.857,3.49-1.727s2.838-1.425,3.538-.266c.435.688.181,1.642.616,2.318.773,1.208,2.584.447,3.719-.386s2.922-1.582,3.719-.423a4.493,4.493,0,0,1,.435,1.208c.543,1.534,2.21,2.306,3.5,3.3s2.331,2.946,1.208,4.154c-.543.592-1.5.833-1.763,1.594-.338.954.628,1.8,1.389,2.415,1.28,1.087,1.509,4.335-.169,5.217-.712.374-1.751.5-1.92,1.208s.543,1.208,1.014,1.787a3.345,3.345,0,0,1-1.026,4.987c-.4.193-.894.35-1.051.773a1.594,1.594,0,0,0,.1.942,5.108,5.108,0,0,1,.169,1.811.809.809,0,0,1-.229.568.785.785,0,0,1-.531.145c-2.415.109-3.623-.749-5.1,1.365a1.691,1.691,0,0,1-.507.543,1.593,1.593,0,0,1-.676.169c-1.666.133-2.765-.906-4.287-1.1-2.125-.278-2.572.821-4.444,1.7C143.6,238.131,142.175,237.286,141.62,235.281Z" transform="translate(27.292 -24.564)" fill="#ebebeb"/>
      <path id="Path_22924" data-name="Path 22924" d="M141.449,250.54a7.511,7.511,0,0,1-.205-1.377c-.169-2.838-2.874-2.415-5.18-2.777-1.811-.3,2.971-4.83-.664-6.315a3.212,3.212,0,0,1-1.763-1.208,2.065,2.065,0,0,1,.8-2.512,4.939,4.939,0,0,1,2.753-.7c.6-.712.121-1.8-.459-2.536s-1.28-1.57-1.063-2.488c.338-1.365,2.246-1.413,3.623-1.147a10.313,10.313,0,0,0,.749-2.8c.242-.942.99-1.932,1.956-1.811s1.473,1.135,2.415,1.34,1.932-.664,2.741-1.352,2.234-1.123,2.8-.217c.326.543.133,1.3.483,1.835.6.93,2.029.35,2.922-.3s2.306-1.208,2.922-.338a3.623,3.623,0,0,1,.35.942c.423,1.208,1.727,1.823,2.753,2.6s1.835,2.331.966,3.285c-.423.459-1.208.652-1.389,1.208s.5,1.413,1.1,1.92c1,.857,1.208,3.417-.133,4.118-.568.29-1.377.374-1.522.99s.435.978.809,1.4a2.644,2.644,0,0,1-.809,3.937c-.314.145-.712.278-.821.6a1.208,1.208,0,0,0,.072.749,4.034,4.034,0,0,1,.133,1.425.677.677,0,0,1-.181.447.616.616,0,0,1-.423.109c-1.908.1-2.838-.592-4.009,1.087a1.329,1.329,0,0,1-.4.423,1.558,1.558,0,0,1-.531.133c-1.316.109-2.174-.725-3.381-.869-1.679-.217-2.029.64-3.5,1.34C143.007,252.834,141.884,252.158,141.449,250.54Z" transform="translate(27.704 -19.899)" fill="#ebebeb"/>
      <path id="Path_22925" data-name="Path 22925" d="M150.49,246.1a7.981,7.981,0,0,1-.266-1.739c-.217-3.623-3.623-3.031-6.593-3.526-2.282-.374,3.78-6.158-.833-8.03a4.094,4.094,0,0,1-2.234-1.546,2.62,2.62,0,0,1,1-3.2,6.183,6.183,0,0,1,3.514-.882c.749-.918.133-2.294-.592-3.236s-1.618-1.992-1.352-3.152c.423-1.739,2.85-1.8,4.613-1.461a12.522,12.522,0,0,0,.954-3.623c.314-1.208,1.208-2.415,2.488-2.294s1.86,1.449,2.995,1.715c1.316.3,2.415-.857,3.49-1.727s2.838-1.425,3.55-.278c.423.688.169,1.654.616,2.331.761,1.208,2.584.447,3.707-.386s2.934-1.594,3.731-.435a5.339,5.339,0,0,1,.435,1.208c.531,1.546,2.2,2.306,3.5,3.3s2.318,2.958,1.208,4.166c-.543.592-1.5.833-1.763,1.594-.338.942.64,1.8,1.4,2.415,1.28,1.087,1.509,4.323-.181,5.217-.712.374-1.751.483-1.92,1.268s.555,1.208,1.026,1.775a3.357,3.357,0,0,1-1.026,5c-.411.193-.906.35-1.051.773a1.594,1.594,0,0,0,.1.942,5.059,5.059,0,0,1,.157,1.811.809.809,0,0,1-.217.568.906.906,0,0,1-.531.145c-2.415.109-3.623-.749-5.1,1.365a1.823,1.823,0,0,1-.507.543,1.86,1.86,0,0,1-.676.169c-1.678.133-2.765-.918-4.3-1.111-2.125-.266-2.572.833-4.444,1.7C152.47,248.961,151.046,248.128,150.49,246.1Z" transform="translate(29.132 -22.317)" fill="#ebebeb"/>
      <path id="Path_22926" data-name="Path 22926" d="M126.16,220.481a8.211,8.211,0,0,1-.266-1.751c-.217-3.623-3.623-3.031-6.593-3.526-2.282-.374,3.78-6.158-.833-8.03a4.033,4.033,0,0,1-2.234-1.546,2.633,2.633,0,0,1,1-3.2,6.182,6.182,0,0,1,3.514-.881c.749-.918.133-2.294-.592-3.224s-1.618-2-1.34-3.152c.411-1.739,2.85-1.811,4.6-1.473a12.523,12.523,0,0,0,.954-3.562c.314-1.208,1.208-2.415,2.488-2.294s1.86,1.449,2.995,1.715,2.415-.857,3.49-1.727,2.838-1.425,3.55-.266c.423.688.169,1.642.616,2.318.761,1.208,2.584.447,3.719-.386s2.922-1.582,3.719-.435a5.337,5.337,0,0,1,.435,1.208c.531,1.546,2.2,2.318,3.5,3.309s2.318,2.946,1.208,4.154c-.543.592-1.485.833-1.763,1.594-.338.954.64,1.8,1.4,2.415,1.28,1.087,1.509,4.335-.181,5.217-.7.374-1.739.483-1.92,1.268s.555,1.208,1.026,1.787A3.345,3.345,0,0,1,147.63,215c-.4.193-.906.35-1.051.773a1.594,1.594,0,0,0,.1.942,4.83,4.83,0,0,1,.157,1.811.809.809,0,0,1-.217.568.882.882,0,0,1-.531.145c-2.415.109-3.623-.749-5.1,1.365a1.691,1.691,0,0,1-.507.543,1.643,1.643,0,0,1-.676.169c-1.666.133-2.765-.906-4.3-1.1-2.125-.278-2.572.821-4.444,1.7C128.14,223.331,126.715,222.473,126.16,220.481Z" transform="translate(24.083 -27.624)" fill="#ebebeb"/>
      <path id="Path_22927" data-name="Path 22927" d="M106.288,221.5a8.972,8.972,0,0,1-.254-1.739c-.217-3.623-3.623-3.031-6.593-3.526-2.294-.386,3.768-6.171-.845-8.03a4.021,4.021,0,0,1-2.222-1.558,2.62,2.62,0,0,1,1-3.2,6.159,6.159,0,0,1,3.5-.869c.761-.918.145-2.294-.592-3.236s-1.618-1.992-1.34-3.152c.423-1.739,2.85-1.8,4.613-1.461a12.908,12.908,0,0,0,.942-3.623c.326-1.208,1.268-2.415,2.5-2.294s1.86,1.437,2.995,1.7,2.415-.845,3.49-1.727,2.838-1.413,3.55-.266c.423.688.169,1.654.6,2.331.773,1.208,2.6.447,3.719-.386s2.934-1.594,3.719-.435a4.975,4.975,0,0,1,.447,1.208c.531,1.546,2.2,2.306,3.49,3.3s2.331,2.958,1.208,4.166c-.543.592-1.5.833-1.763,1.594-.338.942.628,1.8,1.4,2.415,1.208,1.075,1.5,4.323-.181,5.217-.712.374-1.751.483-1.92,1.268s.555,1.208,1.026,1.775a3.357,3.357,0,0,1-1.026,4.987c-.411.193-.906.362-1.063.785a1.7,1.7,0,0,0,.1.942,4.758,4.758,0,0,1,.169,1.8.845.845,0,0,1-.217.568.93.93,0,0,1-.543.157c-2.415.109-3.623-.761-5.1,1.365a1.521,1.521,0,0,1-.507.531,1.388,1.388,0,0,1-.664.169c-1.678.145-2.777-.906-4.3-1.1-2.125-.266-2.572.821-4.444,1.7C108.268,224.363,106.831,223.505,106.288,221.5Z" transform="translate(19.961 -27.424)" fill="#ebebeb"/>
      <path id="Path_22928" data-name="Path 22928" d="M94.23,229.631a8.092,8.092,0,0,1-.266-1.739c-.217-3.623-3.623-3.031-6.593-3.526-2.282-.386,3.78-6.171-.833-8.03a4.058,4.058,0,0,1-2.234-1.558,2.632,2.632,0,0,1,1-3.2,6.279,6.279,0,0,1,3.514-.882c.749-.906.133-2.282-.592-3.224s-1.618-1.992-1.34-3.152c.411-1.739,2.838-1.8,4.6-1.461a12.523,12.523,0,0,0,.954-3.623c.314-1.208,1.208-2.415,2.488-2.306s1.86,1.449,2.995,1.715c1.316.314,2.415-.845,3.49-1.727s2.838-1.413,3.55-.266c.423.688.169,1.654.616,2.331.761,1.208,2.584.447,3.719-.386s2.922-1.594,3.719-.435a4.952,4.952,0,0,1,.435,1.208c.531,1.546,2.2,2.306,3.5,3.3s2.318,2.958,1.208,4.166c-.543.592-1.485.833-1.763,1.594-.338.942.64,1.787,1.4,2.415,1.28,1.087,1.509,4.335-.181,5.229-.7.362-1.739.483-1.92,1.268s.555,1.208,1.026,1.775A3.345,3.345,0,0,1,115.7,224.1c-.411.193-.906.362-1.051.785a1.594,1.594,0,0,0,.1.942,5.011,5.011,0,0,1,.157,1.8.8.8,0,0,1-.217.568.918.918,0,0,1-.531.157c-2.415.109-3.623-.761-5.1,1.365a1.643,1.643,0,0,1-.507.531,1.473,1.473,0,0,1-.676.169c-1.666.145-2.765-.906-4.3-1.1-2.125-.266-2.572.821-4.444,1.7C96.21,232.493,94.845,231.635,94.23,229.631Z" transform="translate(17.456 -25.737)" fill="#ebebeb"/>
      <path id="Path_22929" data-name="Path 22929" d="M96.15,237.8s6.038,8.61,8.187,11.339,12.607,19.755,14.044,31.01c.145,1.208.3,2.234.447,3.14-4.516,29.826-3.816,84.4-3.623,93.742h14.309c.133-10.542,1.352-106.844,1.8-109.778s6.46-14.962,15.7-19.828,17.232-20.975,17.232-20.975H161.3s-5.47,9.878-13.283,15.336a29.647,29.647,0,0,1-3.5,2.077,49.666,49.666,0,0,0-3.091-17.413l-1.558,1.534c2.149,8.791,1.872,14.491,1.208,17.666a31.976,31.976,0,0,0-8.03,5.277c-8.066-10.481-12.595-34.463-12.595-34.463l-2.065,1.123a120,120,0,0,0,2.669,14.708c1.509,6.207,5.953,17.9,8.018,23.2a55.549,55.549,0,0,0-6.038,11.435,4.831,4.831,0,0,0-.785-.93c-5.3-4.709-15.167-27.146-15.167-27.146-2.415-5.217,1.208-18.91,1.208-18.91h-2.657L104.422,231.9l-7.016-7.547L96.2,225.408l7.354,9.455,3.78,11.979-9.878-10.928Z" transform="translate(19.955 -21.49)" fill="#e6e6e6"/>
      <path id="Path_22930" data-name="Path 22930" d="M.012,0h463V14.394a9.564,9.564,0,0,1-9.564,9.564H9.564A9.564,9.564,0,0,1,0,14.394V0Z" transform="translate(533.397 396.365) rotate(180)" fill="#e0e0e0"/>
    </g>
    <g id="freepik--Shadow--inject-37" transform="translate(67.755 477.544)">
      <ellipse id="freepik--path--inject-37" cx="234.131" cy="13.669" rx="234.131" ry="13.669" fill="#f5f5f5"/>
    </g>
    <g id="freepik--Plant--inject-37" transform="translate(94.851 321.717)">
      <path id="Path_22931" data-name="Path 22931" d="M109.147,395.232s-1.715-12.269-9.528-13.633-5.494-7.245-7.535-9.588-7.4,4.492-2.814,11.061.833,4.5,2.814,10.614S109.847,405.412,109.147,395.232Z" transform="translate(-76.698 -256.021)" fill="#263238"/>
      <path id="Path_22932" data-name="Path 22932" d="M109.147,395.232s-1.715-12.269-9.528-13.633-5.494-7.245-7.535-9.588-7.4,4.492-2.814,11.061.833,4.5,2.814,10.614S109.847,405.412,109.147,395.232Z" transform="translate(-76.698 -256.021)" fill="#fff" opacity="0.2"/>
      <path id="Path_22933" data-name="Path 22933" d="M107.987,422.152a.543.543,0,0,1-.5-.3c0-.133-6.038-12.909-2.91-33.256a85.46,85.46,0,0,1,4.83-17.026c3.792-10.361,6.8-18.548-.072-33.5-2.174-4.734-4.383-9.141-6.533-13.4-8.066-16.012-14.491-28.655-9.66-41.455a.543.543,0,0,1,.7-.326.555.555,0,0,1,.326.7c-4.577,12.365,1.7,24.815,9.66,40.586,2.149,4.275,4.383,8.694,6.557,13.44,7.064,15.36,3.828,24.151.1,34.33a83.516,83.516,0,0,0-4.758,16.809c-3.1,20.009,2.753,32.507,2.814,32.6a.555.555,0,0,1-.266.725A.52.52,0,0,1,107.987,422.152Z" transform="translate(-75.864 -274.428)" fill="#263238"/>
      <path id="Path_22934" data-name="Path 22934" d="M101.684,399.5s-5.072-7.656,2.258-11.592,8.791-.761,13.283-3.623,7.97-9.66,8.743-5.3-4.468,6.883-2.608,8.888S111.078,402.954,101.684,399.5Z" transform="translate(-74.101 -254.771)" fill="#263238"/>
      <path id="Path_22935" data-name="Path 22935" d="M91.656,291.229s-4.951-15.034,6.3-15.348S96.813,289.635,91.656,291.229Z" transform="translate(-76.053 -275.876)" fill="#263238"/>
      <path id="Path_22936" data-name="Path 22936" d="M99.57,300.094s3.345-13.669,11.339-10.8S107.528,300.347,99.57,300.094Z" transform="translate(-74.185 -273.172)" fill="#263238"/>
      <path id="Path_22937" data-name="Path 22937" d="M90.372,301.065s1.208-10.868-7.245-11.134S78.405,299.3,90.372,301.065Z" transform="translate(-78.548 -272.96)" fill="#263238"/>
      <path id="Path_22938" data-name="Path 22938" d="M95.793,318.5s-11.375-10.131-15.457-2.584S88.922,325.049,95.793,318.5Z" transform="translate(-78.342 -268.145)" fill="#263238"/>
      <path id="Path_22939" data-name="Path 22939" d="M109.68,318.252s2.137-16.833,11.327-11.556S117.686,319.943,109.68,318.252Z" transform="translate(-72.087 -269.692)" fill="#263238"/>
      <path id="Path_22940" data-name="Path 22940" d="M116.694,338.68s-6.786-17.014,5.82-15.094S125.581,334.551,116.694,338.68Z" transform="translate(-71.01 -266.005)" fill="#263238"/>
      <path id="Path_22941" data-name="Path 22941" d="M104.168,342.7s-10.651-12.534-18.777-8.562S83.905,350.581,104.168,342.7Z" transform="translate(-77.829 -263.946)" fill="#263238"/>
      <path id="Path_22942" data-name="Path 22942" d="M108.36,366.636s9.069-20.142,17.135-13.355S120.351,370.222,108.36,366.636Z" transform="translate(-72.361 -260.101)" fill="#263238"/>
      <path id="Path_22943" data-name="Path 22943" d="M99.5,365.6s2.415-15.614-6.581-14.358S86.294,362.05,99.5,365.6Z" transform="translate(-76.68 -260.249)" fill="#263238"/>
      <g id="Group_10218" data-name="Group 10218" opacity="0.2">
        <path id="Path_22944" data-name="Path 22944" d="M91.656,291.229s-4.951-15.034,6.3-15.348S96.813,289.635,91.656,291.229Z" transform="translate(-76.053 -275.876)" fill="#fff"/>
        <path id="Path_22945" data-name="Path 22945" d="M99.57,300.094s3.345-13.669,11.339-10.8S107.528,300.347,99.57,300.094Z" transform="translate(-74.185 -273.172)" fill="#fff"/>
        <path id="Path_22946" data-name="Path 22946" d="M90.372,301.065s1.208-10.868-7.245-11.134S78.405,299.3,90.372,301.065Z" transform="translate(-78.548 -272.96)" fill="#fff"/>
        <path id="Path_22947" data-name="Path 22947" d="M95.793,318.5s-11.375-10.131-15.457-2.584S88.922,325.049,95.793,318.5Z" transform="translate(-78.342 -268.145)" fill="#fff"/>
        <path id="Path_22948" data-name="Path 22948" d="M109.68,318.252s2.137-16.833,11.327-11.556S117.686,319.943,109.68,318.252Z" transform="translate(-72.087 -269.692)" fill="#fff"/>
        <path id="Path_22949" data-name="Path 22949" d="M116.694,338.68s-6.786-17.014,5.82-15.094S125.581,334.551,116.694,338.68Z" transform="translate(-71.01 -266.005)" fill="#fff"/>
        <path id="Path_22950" data-name="Path 22950" d="M104.168,342.7s-10.651-12.534-18.777-8.562S83.905,350.581,104.168,342.7Z" transform="translate(-77.829 -263.946)" fill="#fff"/>
        <path id="Path_22951" data-name="Path 22951" d="M108.36,366.636s9.069-20.142,17.135-13.355S120.351,370.222,108.36,366.636Z" transform="translate(-72.361 -260.101)" fill="#fff"/>
        <path id="Path_22952" data-name="Path 22952" d="M99.5,365.6s2.415-15.614-6.581-14.358S86.294,362.05,99.5,365.6Z" transform="translate(-76.68 -260.249)" fill="#fff"/>
      </g>
      <path id="Path_22953" data-name="Path 22953" d="M97.564,307.732a.555.555,0,0,1-.266-.072c-6.654-3.731-11.448-10.771-11.653-11.073a.555.555,0,0,1,.157-.761.531.531,0,0,1,.749.157c0,.06,4.613,6.774,10.8,10.445,1.026-1.884,4.685-8.38,7.74-10.216a.543.543,0,0,1,.749.193.519.519,0,0,1-.193.737c-3.248,1.956-7.547,10.2-7.6,10.288a.531.531,0,0,1-.326.278Z" transform="translate(-77.094 -271.754)" fill="#263238"/>
      <path id="Path_22954" data-name="Path 22954" d="M107.941,325.482a.568.568,0,0,1-.338-.109c-9.467-7.161-21.579-6.859-21.736-6.859a.579.579,0,0,1-.568-.531.543.543,0,0,1,.531-.555c.121,0,12.208-.314,21.917,6.726,1.208-2.029,6.134-9.358,12.377-13.029a.531.531,0,0,1,.749.193.519.519,0,0,1-.193.737c-6.883,4.057-12.257,13.078-12.317,13.162a.5.5,0,0,1-.362.254Z" transform="translate(-77.147 -268.577)" fill="#263238"/>
      <path id="Path_22955" data-name="Path 22955" d="M113.743,349.352a.555.555,0,0,1-.266-.072c-.145-.085-13.983-8.042-23.994-8.235a.543.543,0,0,1,0-1.087c9.54.181,21.965,6.943,24.151,8.187,6.424-5.41,11.52-18.717,11.58-18.85a.543.543,0,1,1,1.014.386c-.217.568-5.41,14.1-12.2,19.55A.519.519,0,0,1,113.743,349.352Z" transform="translate(-76.392 -264.867)" fill="#263238"/>
      <path id="Path_22956" data-name="Path 22956" d="M105.019,372.5a.556.556,0,0,1-.278-.072c-5.229-2.995-11.991-16.109-12.281-16.664a.548.548,0,1,1,.978-.5c0,.133,6.533,12.667,11.448,15.952A31.227,31.227,0,0,1,120.1,361.5a.555.555,0,0,1,.676.374.543.543,0,0,1-.362.676,29.923,29.923,0,0,0-14.961,9.66.507.507,0,0,1-.435.29Z" transform="translate(-75.673 -259.46)" fill="#263238"/>
      <path id="Path_22957" data-name="Path 22957" d="M105.176,396.322s-4.359-6.931-9.274-7.921-6.992-6.654-8.839-3.212S90.287,399.86,105.176,396.322Z" transform="translate(-76.857 -253.416)" fill="#263238"/>
      <path id="Path_22958" data-name="Path 22958" d="M83.866,421.791h47.553l3.188-29.331H80.69Z" transform="translate(-78.104 -251.679)" fill="#1550a2"/>
      <path id="Path_22959" data-name="Path 22959" d="M79.895,398.127h56.139l.712-6.207H79.17Z" transform="translate(-78.419 -251.791)" fill="#1550a2"/>
      <path id="Path_22960" data-name="Path 22960" d="M79.895,398.127h56.139l.712-6.207H79.17Z" transform="translate(-78.419 -251.791)" fill="#fff" opacity="0.3"/>
    </g>
    <g id="freepik--Streetlight--inject-37" transform="translate(481.786 161.868)">
      <path id="Path_22961" data-name="Path 22961" d="M433.873,154.06l-4.13,39.668H409.07l-4.13-39.668Z" transform="translate(-397.743 -141.308)" fill="#263238"/>
      <path id="Path_22962" data-name="Path 22962" d="M433.873,154.06l-4.13,39.668H409.07l-4.13-39.668Z" transform="translate(-397.743 -141.308)" fill="#fff" opacity="0.3"/>
      <rect id="Rectangle_2880" data-name="Rectangle 2880" width="7.692" height="286.067" transform="translate(17.811 43.894)" fill="#263238"/>
      <rect id="Rectangle_2881" data-name="Rectangle 2881" width="7.692" height="286.067" transform="translate(17.811 43.894)" fill="#fff" opacity="0.3"/>
      <path id="Path_22963" data-name="Path 22963" d="M427.109,190.9H410.783L407.16,156.06h23.571Z" transform="translate(-397.282 -140.893)" fill="#1550a2"/>
      <path id="Path_22964" data-name="Path 22964" d="M427.109,190.9H410.783L407.16,156.06h23.571Z" transform="translate(-397.282 -140.893)" fill="#fff" opacity="0.4"/>
      <path id="Path_22965" data-name="Path 22965" d="M415.539,191.649h-1.111L413.22,155.06h1.111Z" transform="translate(-396.025 -141.101)" fill="#263238"/>
      <path id="Path_22966" data-name="Path 22966" d="M415.539,191.649h-1.111L413.22,155.06h1.111Z" transform="translate(-396.025 -141.101)" fill="#fff" opacity="0.3"/>
      <path id="Path_22967" data-name="Path 22967" d="M432.111,154.06l-4.13,39.668H414.988L413.43,154.06Z" transform="translate(-395.981 -141.308)" fill="#fff" opacity="0.2"/>
      <path id="Path_22968" data-name="Path 22968" d="M420.643,143.5s-12.269,12.075-21.663,12.075l2.922,1.92h37.434l2.91-1.92C432.9,155.6,420.643,143.5,420.643,143.5Z" transform="translate(-398.98 -143.5)" fill="#263238"/>
      <path id="Path_22969" data-name="Path 22969" d="M442.291,155.6l-2.91,1.908H401.946L399,155.6c9.395,0,21.651-12.075,21.651-12.075S432.9,155.6,442.291,155.6Z" transform="translate(-398.976 -143.496)" fill="#fff" opacity="0.4"/>
      <path id="Path_22970" data-name="Path 22970" d="M439.742,155.6l-2.91,1.908H412.488c-.737-1.208-1.208-2.065-1.208-2.065,6.533-3.031,6.859-11.943,6.859-11.943S430.347,155.6,439.742,155.6Z" transform="translate(-396.427 -143.5)" fill="#fff" opacity="0.2"/>
      <path id="Path_22971" data-name="Path 22971" d="M411.959,412.37h13.211a2.983,2.983,0,0,1,2.983,2.983v2.306H409v-2.306a2.983,2.983,0,0,1,2.959-2.983Z" transform="translate(-396.9 -87.697)" fill="#263238"/>
      <path id="Path_22972" data-name="Path 22972" d="M411.959,412.37h13.211a2.983,2.983,0,0,1,2.983,2.983v2.306H409v-2.306a2.983,2.983,0,0,1,2.959-2.983Z" transform="translate(-396.9 -87.697)" fill="#fff" opacity="0.5"/>
    </g>
    <g id="freepik--Screen--inject-37" transform="translate(122.687 130.52)">
      <rect id="Rectangle_2882" data-name="Rectangle 2882" width="176.591" height="239.794" rx="7.83" fill="#1550a2"/>
      <rect id="Rectangle_2883" data-name="Rectangle 2883" width="176.591" height="239.794" rx="7.83" fill="#fff" opacity="0.6"/>
      <path id="Path_22973" data-name="Path 22973" d="M202.512,174.864A23.692,23.692,0,1,1,195.57,158.1a23.716,23.716,0,0,1,6.942,16.768Z" transform="translate(-90.5 -110.562)" fill="#1550a2"/>
      <path id="Path_22974" data-name="Path 22974" d="M202.512,174.864A23.692,23.692,0,1,1,195.57,158.1a23.716,23.716,0,0,1,6.942,16.768Z" transform="translate(-90.5 -110.562)" fill="#fff" opacity="0.7"/>
      <circle id="Ellipse_113" data-name="Ellipse 113" cx="8.489" cy="8.489" r="8.489" transform="translate(79.807 53.579)" fill="#fff"/>
      <path id="Path_22975" data-name="Path 22975" d="M192.364,188.206a23.728,23.728,0,0,1-30.1,0c2.222-6.509,6.8-11.315,12.293-12.534a12.7,12.7,0,0,1,5.506,0C185.566,176.855,190.13,181.661,192.364,188.206Z" transform="translate(-89.01 -105.538)" fill="#fff"/>
      <text id="Sign_up_now" data-name="Sign up now" transform="translate(73.105 156.489)" fill="rgba(0,0,0,0.5)" font-size="4" font-family="Montserrat" opacity="0.5"><tspan x="0" y="0">Sign up n</tspan><tspan y="0" letter-spacing="-0.02em" fill="#000">o</tspan><tspan y="0" fill="#000">w</tspan></text>
      <rect id="Rectangle_2884" data-name="Rectangle 2884" width="115.284" height="19.743" rx="8.17" transform="translate(30.66 164.274)" fill="#1550a2"/>
      <g id="Group_10219" data-name="Group 10219" transform="translate(66.572 192.386)" opacity="0.5">
        <text id="Forgot_Password_" data-name="Forgot Password?" transform="translate(0 4)" font-size="4" font-family="Montserrat"><tspan x="0" y="0">Forgot Pass</tspan><tspan y="0" letter-spacing="-0.01em">w</tspan><tspan y="0">ord?</tspan></text>
      </g>
      <text id="Login" transform="translate(74.928 176.559)" fill="#fff" font-size="9" font-family="Montserrat" font-weight="500"><tspan x="0" y="0">Login</tspan></text>
      <rect id="Rectangle_2885" data-name="Rectangle 2885" width="115.284" height="19.743" rx="8.17" transform="translate(30.66 97.618)" fill="#fff"/>
      <rect id="Rectangle_2886" data-name="Rectangle 2886" width="115.284" height="19.743" rx="8.17" transform="translate(30.66 125.609)" fill="#fff"/>
      <g id="Group_10220" data-name="Group 10220" transform="translate(43.303 103.221)" opacity="0.5">
        <text id="Name_mail.com" data-name="Name@mail.com" transform="translate(0 5)" font-size="5" font-family="Montserrat"><tspan x="0" y="0">Name@mail.</tspan><tspan y="0" letter-spacing="-0.02em">c</tspan><tspan y="0">om</tspan></text>
      </g>
      <text id="_" data-name="*******" transform="translate(43.303 140.395)" font-size="8" font-family="Montserrat" opacity="0.5"><tspan x="0" y="0">*******</tspan></text>
      <path id="Path_22976" data-name="Path 22976" d="M205.66,202.71v9.274H218.8V202.71Zm10.989,1.014-4.42,3.019-4.432-3.019Zm-9.986,7.245v-6.8l5.567,3.792,5.555-3.792v6.8Z" transform="translate(-80.003 -99.863)" opacity="0.2"/>
      <g id="Group_10221" data-name="Group 10221" transform="translate(126.671 130.246)" opacity="0.2">
        <path id="Path_22977" data-name="Path 22977" d="M215.158,229.1v-1.123a2.584,2.584,0,0,0-2.572-2.572h-1.4a2.584,2.584,0,0,0-2.572,2.572V229.1H206.5v7.716h11.1V229.1Zm-5.531-1.123a1.558,1.558,0,0,1,1.558-1.558h1.4a1.558,1.558,0,0,1,1.558,1.558V229.1h-4.516ZM216.6,235.8h-9.081v-5.688H216.6Z" transform="translate(-206.5 -225.4)"/>
        <path id="Path_22978" data-name="Path 22978" d="M210.911,232.107v.918h.58v-.918a.556.556,0,0,0,.278-.483.58.58,0,1,0-1.147,0A.567.567,0,0,0,210.911,232.107Z" transform="translate(-205.646 -224.246)"/>
      </g>
    </g>
    <g id="freepik--speech-bubble--inject-37" transform="translate(379.266 164.464)">
      <path id="Path_22979" data-name="Path 22979" d="M359.46,145.65H324.767a10.687,10.687,0,0,0-10.687,10.687v30.189a10.687,10.687,0,0,0,10.687,10.687h13.718l3.623,9.528,3.623-9.528h13.718a10.675,10.675,0,0,0,10.675-10.687V156.337A10.675,10.675,0,0,0,359.46,145.65Z" transform="translate(-314.08 -145.65)" fill="#1550a2"/>
      <path id="Path_22980" data-name="Path 22980" d="M359.46,145.65H324.767a10.687,10.687,0,0,0-10.687,10.687v30.189a10.687,10.687,0,0,0,10.687,10.687h13.718l3.623,9.528,3.623-9.528h13.718a10.675,10.675,0,0,0,10.675-10.687V156.337A10.675,10.675,0,0,0,359.46,145.65Z" transform="translate(-314.08 -145.65)" fill="#fff" opacity="0.7"/>
      <path id="Path_22981" data-name="Path 22981" d="M337.235,175.915a1.582,1.582,0,0,1-1.208-.555l-6.762-7.958a1.585,1.585,0,0,1,2.415-2.053l5.555,6.545,9.165-10.868a1.585,1.585,0,1,1,2.415,2.053L338.442,175.36a1.606,1.606,0,0,1-1.207.555Z" transform="translate(-311.007 -142.575)" fill="#fff"/>
      <circle id="Ellipse_114" data-name="Ellipse 114" cx="17.22" cy="17.22" r="17.22" transform="translate(3.676 25.646) rotate(-45)" fill="#1550a2"/>
    </g>
    <g id="freepik--Character--inject-37" transform="translate(213.313 234.152)">
      <path id="Path_22982" data-name="Path 22982" d="M393.492,432.563h7.97l-16.3-92h-7.97Z" transform="translate(-135.029 -174.886)" fill="#263238"/>
      <path id="Path_22983" data-name="Path 22983" d="M248.332,432.563h7.982l-16.3-92H232.03Z" transform="translate(-165.156 -174.886)" fill="#263238"/>
      <path id="Path_22984" data-name="Path 22984" d="M393.492,432.563h7.97l-16.3-92h-7.97Z" transform="translate(-135.029 -174.886)" fill="#fff" opacity="0.3"/>
      <path id="Path_22985" data-name="Path 22985" d="M248.332,432.563h7.982l-16.3-92H232.03Z" transform="translate(-165.156 -174.886)" fill="#fff" opacity="0.3"/>
      <rect id="Rectangle_2887" data-name="Rectangle 2887" width="240.483" height="8.078" transform="translate(254.297 219.748) rotate(180)" fill="#263238"/>
      <rect id="Rectangle_2888" data-name="Rectangle 2888" width="240.483" height="8.078" transform="translate(254.297 219.748) rotate(180)" fill="#fff" opacity="0.5"/>
      <path id="Path_22986" data-name="Path 22986" d="M331.16,432.563h-7.97l16.3-92h7.97Z" transform="translate(-146.236 -174.886)" fill="#263238"/>
      <path id="Path_22987" data-name="Path 22987" d="M186.012,432.563H178.03l16.3-92h7.982Z" transform="translate(-176.364 -174.886)" fill="#263238"/>
      <path id="Path_22988" data-name="Path 22988" d="M331.16,432.563h-7.97l16.3-92h7.97Z" transform="translate(-146.236 -174.886)" fill="#fff" opacity="0.3"/>
      <path id="Path_22989" data-name="Path 22989" d="M186.012,432.563H178.03l16.3-92h7.982Z" transform="translate(-176.364 -174.886)" fill="#fff" opacity="0.3"/>
      <path id="Path_22990" data-name="Path 22990" d="M244.52,350.281h7.934l13.283-73.841H257.8Z" transform="translate(-162.564 -188.193)" fill="#263238"/>
      <path id="Path_22991" data-name="Path 22991" d="M244.52,350.281h7.934l13.283-73.841H257.8Z" transform="translate(-162.564 -188.193)" fill="#fff" opacity="0.3"/>
      <path id="Path_22992" data-name="Path 22992" d="M375.01,350.281h7.934l13.283-73.841h-7.934Z" transform="translate(-135.481 -188.193)" fill="#263238"/>
      <path id="Path_22993" data-name="Path 22993" d="M309.76,350.281h7.934l13.283-73.841h-7.934Z" transform="translate(-149.024 -188.193)" fill="#263238"/>
      <path id="Path_22994" data-name="Path 22994" d="M375.01,350.281h7.934l13.283-73.841h-7.934Z" transform="translate(-135.481 -188.193)" fill="#fff" opacity="0.3"/>
      <path id="Path_22995" data-name="Path 22995" d="M309.76,350.281h7.934l13.283-73.841h-7.934Z" transform="translate(-149.024 -188.193)" fill="#fff" opacity="0.3"/>
      <path id="Path_22996" data-name="Path 22996" d="M233.17,282.994H441.556l2.488-13.814H235.658Z" transform="translate(-164.92 -189.7)" fill="#263238"/>
      <path id="Path_22997" data-name="Path 22997" d="M229.45,303.694H437.836l2.488-13.814H231.938Z" transform="translate(-165.692 -185.404)" fill="#263238"/>
      <path id="Path_22998" data-name="Path 22998" d="M225.72,324.394H434.106l2.488-13.814H228.208Z" transform="translate(-166.466 -181.108)" fill="#263238"/>
      <rect id="Rectangle_2889" data-name="Rectangle 2889" width="265.575" height="9.564" transform="translate(265.575 169.478) rotate(180)" fill="#263238"/>
      <path id="Path_22999" data-name="Path 22999" d="M233.17,282.994H441.556l2.488-13.814H235.658Z" transform="translate(-164.92 -189.7)" fill="#fff" opacity="0.5"/>
      <path id="Path_23000" data-name="Path 23000" d="M229.45,303.694H437.836l2.488-13.814H231.938Z" transform="translate(-165.692 -185.404)" fill="#fff" opacity="0.5"/>
      <path id="Path_23001" data-name="Path 23001" d="M225.72,324.394H434.106l2.488-13.814H228.208Z" transform="translate(-166.466 -181.108)" fill="#fff" opacity="0.5"/>
      <rect id="Rectangle_2890" data-name="Rectangle 2890" width="265.575" height="9.564" transform="translate(265.575 169.478) rotate(180)" fill="#fff" opacity="0.5"/>
      <rect id="Rectangle_2891" data-name="Rectangle 2891" width="200.368" height="9.564" transform="translate(200.368 169.478) rotate(180)" fill="#fff" opacity="0.2"/>
      <path id="Path_23002" data-name="Path 23002" d="M334.387,255.948c-5.615,5.929-19.079,20.456-27.411,20.2-8.791-.942-18.62-14.491-23.306-21.349a3.019,3.019,0,0,1,4.48-3.937c5.724,4.758,13.838,12.208,19.236,14.382-.821,0-.978.169-.229-.3,6.786-4.83,12.522-11.375,18.415-17.244,5.615-5.47,13.9,2.27,8.815,8.248Z" transform="translate(-154.536 -194.545)" fill="#e9b376"/>
      <path id="Path_23003" data-name="Path 23003" d="M329.658,245.25v17.3s-3.623,3.043-8.151,6.4c-2.246,1.678-4.7,3.429-6.992,4.915-3.49,2.27-6.629,3.937-8.223,3.84-4.758-.29-15.082-7.668-15.082-7.668l6.786-11.3s7.8,4.77,8.3,5.1S323.15,245.359,329.658,245.25Z" transform="translate(-152.874 -194.667)" fill="#1550a2"/>
      <path id="Path_23004" data-name="Path 23004" d="M317.5,266.4c-2.246,1.679-4.7,3.429-6.992,4.915.543-9.926,5.217-13.742,5.217-13.742A17.232,17.232,0,0,1,317.5,266.4Z" transform="translate(-148.868 -192.11)" opacity="0.2"/>
      <path id="Path_23005" data-name="Path 23005" d="M329.485,208.238c-8.332,6.8-7.342,26.361,2.017,39.2,0,0,20,1.679,31.106-3.3S361.4,207.489,349.7,205a28,28,0,0,0-20.214,3.236Z" transform="translate(-146.107 -203.154)" fill="#263238"/>
      <path id="Path_23006" data-name="Path 23006" d="M329.378,228.767c-3.055-5.265-6.038-19.478,6.605-23.861,15.855-5.482,22.943,4.625,24.332,14.648s-4.275,17.594-14.756,16.845S331.479,232.413,329.378,228.767Z" transform="translate(-145.505 -203.361)" fill="#263238"/>
      <path id="Path_23007" data-name="Path 23007" d="M314.9,260.285c-1.546,7.33,1.208,24.6,1.618,37.615l37.337,4.3c0-4.082.761-10,3.2-19.405,1.389-5.506,3.393-12.22,6.134-20.456.4-1.208.821-2.415,1.208-3.755a9.286,9.286,0,0,0-7.245-12.474c-1.57-.254-3.236-.471-4.939-.64a125.593,125.593,0,0,0-18.113-.954c-1.968.06-4.021.205-5.977.374C321.155,245.48,316.325,253.426,314.9,260.285Z" transform="translate(-148.054 -194.824)" fill="#263238"/>
      <path id="Path_23008" data-name="Path 23008" d="M348.984,228.41c-1.872,5.724-4.371,16.266-.8,20.335,0,0-5.458-1.111-17.521,5.482-3.128-5.023-.531-6.436-.531-6.436,6.678-1.208,7.112-6.038,6.569-10.542Z" transform="translate(-145.005 -198.162)" fill="#ebb376"/>
      <path id="Path_23009" data-name="Path 23009" d="M342.675,231.39l-7.245,5.229a18.114,18.114,0,0,1,.145,3.224c2.524-.229,6.267-2.753,6.859-5.313A8.669,8.669,0,0,0,342.675,231.39Z" transform="translate(-143.696 -197.543)" opacity="0.2"/>
      <path id="Path_23010" data-name="Path 23010" d="M352.274,219.576c.133,9.552.386,13.6-4.057,18.838-6.666,7.885-18.439,5.953-21.422-3.369-2.681-8.453-2.415-22.617,6.593-27.1a13.041,13.041,0,0,1,18.886,11.629Z" transform="translate(-145.796 -202.696)" fill="#ffb573"/>
      <path id="Path_23011" data-name="Path 23011" d="M341.041,210.372c-2.645,3.321,3.381,13.778,8.139,15.553C358.418,222.882,348.95,200.458,341.041,210.372Z" transform="translate(-142.666 -202.427)" fill="#263238"/>
      <path id="Path_23012" data-name="Path 23012" d="M332.805,206.317c-3.514,1.546-6.811,8.151-7.245,10.614,5.229.4,18.693-5.639,18.693-5.639s9.479,1.739,4.383-2.536S332.805,206.317,332.805,206.317Z" transform="translate(-145.744 -202.828)" fill="#263238"/>
      <path id="Path_23013" data-name="Path 23013" d="M334.8,220.791c0,.773-.3,1.425-.809,1.473s-.966-.568-1.026-1.34.314-1.425.821-1.473S334.736,220.018,334.8,220.791Z" transform="translate(-144.21 -200.022)" fill="#263238"/>
      <path id="Path_23014" data-name="Path 23014" d="M327.547,221.329c0,.773-.3,1.437-.809,1.473s-.966-.555-1.026-1.328.314-1.437.821-1.473S327.486,220.556,327.547,221.329Z" transform="translate(-145.714 -199.907)" fill="#263238"/>
      <path id="Path_23015" data-name="Path 23015" d="M326.9,220.069l-1.9-.4S326.063,221.071,326.9,220.069Z" transform="translate(-145.861 -199.976)" fill="#263238"/>
      <path id="Path_23016" data-name="Path 23016" d="M330.725,221.9a21.324,21.324,0,0,1-2.415,5.156,3.357,3.357,0,0,0,2.8.3Z" transform="translate(-145.174 -199.513)" fill="#ed893e"/>
      <path id="Path_23017" data-name="Path 23017" d="M334.565,229.215a7.7,7.7,0,0,1-1.135.181.229.229,0,1,1,0-.459,6.122,6.122,0,0,0,4.83-2.777.217.217,0,0,1,.3-.085.229.229,0,0,1,.1.3,6.364,6.364,0,0,1-4.094,2.838Z" transform="translate(-144.159 -198.653)" fill="#263238"/>
      <path id="Path_23018" data-name="Path 23018" d="M351.507,225.123a6.955,6.955,0,0,1-3.333,4.166c-2.149,1.208-3.768-.64-3.623-2.959.133-2.077,1.413-5.192,3.8-5.41a3.14,3.14,0,0,1,3.152,4.2Z" transform="translate(-141.805 -199.717)" fill="#ffb573"/>
      <path id="Path_23019" data-name="Path 23019" d="M338.815,219.222a.471.471,0,0,1-.5-.217c-1.087-1.8-3.792-2.017-3.816-2.017a.46.46,0,1,1,.06-.918c.133,0,3.212.266,4.54,2.415a.459.459,0,0,1-.157.628Z" transform="translate(-143.977 -200.723)" fill="#263238"/>
      <path id="Path_23020" data-name="Path 23020" d="M325.658,218.092a.46.46,0,0,1-.435-.773,4.48,4.48,0,0,1,3.961-1.268.453.453,0,1,1-.205.882h0a3.623,3.623,0,0,0-3.128,1.038.507.507,0,0,1-.193.121Z" transform="translate(-145.842 -200.741)" fill="#263238"/>
      <path id="Path_23021" data-name="Path 23021" d="M334.146,219.549l-1.9-.4S333.313,220.527,334.146,219.549Z" transform="translate(-144.356 -200.084)" fill="#263238"/>
      <path id="Path_23022" data-name="Path 23022" d="M305.748,249.825l.906,2.826a3.442,3.442,0,0,0,2.234,2.234l4.975,1.594a6.424,6.424,0,0,0,5.832-.978l1.026-.773c-1.208-4.83-5.977-9.1-5.977-9.1l-1.208-1.389a2.886,2.886,0,0,0-4.069-.326l-2.765,2.415A3.3,3.3,0,0,0,305.748,249.825Z" transform="translate(-149.89 -195.088)" fill="#ebb376"/>
      <path id="Path_23023" data-name="Path 23023" d="M278.029,251.965l.906,2.838a3.478,3.478,0,0,0,2.246,2.234l4.963,1.594a6.46,6.46,0,0,0,5.832-.978l1.038-.773c-1.208-4.83-6.038-9.117-6.038-9.117l-1.208-1.377a2.874,2.874,0,0,0-4.081-.326l-2.765,2.415a3.321,3.321,0,0,0-.893,3.49Z" transform="translate(-155.645 -194.644)" fill="#ebb376"/>
      <path id="Path_23024" data-name="Path 23024" d="M337.883,265.616c2.415,7.076,8.537,12.353,14.406,15.481,1.389-5.506,3.393-12.22,6.134-20.456-3.683-5.144-8.839-8.8-15.408-7.813C343.015,252.828,335.455,258.455,337.883,265.616Z" transform="translate(-143.287 -193.128)" opacity="0.2"/>
      <path id="Path_23025" data-name="Path 23025" d="M228.07,397.99l6.3,2.548s53.555-80.785,58.518-77.754c17.956,11,54.871,30.66,72.344,18.753s7.1-43.29,7.1-43.29-33.98-11.931-38.183-4.552a57.12,57.12,0,0,0-2.886,6.8c-.869,2.331-1.546,4.3-1.546,4.3h0c-1.026-.483-34.331-16.507-50.017-9.9C263.753,301.591,228.07,397.99,228.07,397.99Z" transform="translate(-165.978 -185.112)" fill="#ebb376"/>
      <path id="Path_23026" data-name="Path 23026" d="M335.947,341.264s-16.845,1.1-39.921-6.738c0,0-5.688,64.338-9.515,99.26l-7.728-1.087s-13.15-95.324-10.554-106.94,16.7-12.389,16.7-12.389S311.821,333.138,335.947,341.264Z" transform="translate(-157.714 -180.529)" fill="#ebb376"/>
      <path id="Path_23027" data-name="Path 23027" d="M330.043,338.763a125.341,125.341,0,0,1-33.7-4.19l2.2-9.153C307.027,331.035,318.873,334.452,330.043,338.763Z" transform="translate(-151.809 -178.028)" fill="#1550a2"/>
      <path id="Path_23028" data-name="Path 23028" d="M330.043,338.763a125.341,125.341,0,0,1-33.7-4.19l2.2-9.153C307.027,331.035,318.873,334.452,330.043,338.763Z" transform="translate(-151.809 -178.028)" fill="#fff" opacity="0.4"/>
      <path id="Path_23029" data-name="Path 23029" d="M297.327,324.65l-2.017,10.192,3.067,1.051,2.367-9Z" transform="translate(-152.023 -178.188)" fill="#1550a2"/>
      <path id="Path_23030" data-name="Path 23030" d="M297.327,324.65l-2.017,10.192,3.067,1.051,2.367-9Z" transform="translate(-152.023 -178.188)" fill="#fff" opacity="0.6"/>
      <path id="Path_23031" data-name="Path 23031" d="M271.024,366.271c-1.208-25.358-1.739-38.448,2.415-43.677a18.379,18.379,0,0,1,10.687-6.183c5.41,13.706,28.981,22.255,29.633,22.484h0c8.8,1.823,21.844,2.294,22.171,2.415a86.787,86.787,0,0,1-31.5-13.283,198.765,198.765,0,0,1-19.5-14.647s-14.068.761-16.664,12.377c-1.063,4.758.507,23.5,2.729,44.015a32.041,32.041,0,0,0,.036-3.5Z" transform="translate(-157.708 -180.527)" opacity="0.2"/>
      <path id="Path_23032" data-name="Path 23032" d="M222.874,375.852a1,1,0,0,1,.242-1.135,1.123,1.123,0,0,1,.809-.423,4.444,4.444,0,0,1,2.282.761c-.592-.773-1.051-1.606-.845-2.125.133-.338.471-.519,1.014-.519a1.642,1.642,0,0,1,1.268.543c1.051,1.147.821,3.768.821,3.888a.363.363,0,0,1,0,.121.121.121,0,0,1,0,.06.217.217,0,0,1-.085,0h-.1a17.269,17.269,0,0,1-3.369-.254C223.913,376.661,223.116,376.359,222.874,375.852Zm1.1-.99a.567.567,0,0,0-.423.205c-.278.338-.205.5-.181.543.29.58,2.306.869,4.009.918C226.4,375.791,224.867,374.777,223.973,374.861Zm2.415-1.9c-.157,0-.435,0-.5.169-.169.447.869,1.835,2.041,3.043a4.577,4.577,0,0,0-.7-2.85,1.062,1.062,0,0,0-.58-.338Z" transform="translate(-167.073 -168.275)" fill="#263238"/>
      <path id="Path_23033" data-name="Path 23033" d="M270.708,408.439a1.026,1.026,0,0,1-.266-1.135,1.135,1.135,0,0,1,.555-.725,4.432,4.432,0,0,1,2.415-.29c-.869-.447-1.63-1-1.666-1.558a1.054,1.054,0,0,1,.688-.906,1.618,1.618,0,0,1,1.377,0c1.449.58,2.415,3.043,2.415,3.152a.266.266,0,0,1,0,.133h0a.169.169,0,0,1-.06.1l-.06.06h0a13.186,13.186,0,0,1-4.432,1.4A1.461,1.461,0,0,1,270.708,408.439Zm.58-1.377a.568.568,0,0,0-.3.374c-.109.423,0,.531.072.568.507.4,2.415-.205,4.009-.894-1.2-.241-3.019-.5-3.78-.048Zm1.352-2.729c-.145.072-.386.205-.374.362,0,.471,1.558,1.28,3.152,1.86a4.613,4.613,0,0,0-1.86-2.258,1,1,0,0,0-.41-.085,1.111,1.111,0,0,0-.507.121Z" transform="translate(-157.199 -161.787)" fill="#263238"/>
      <path id="Path_23034" data-name="Path 23034" d="M241.544,380.307c.35-.8-9.66-4.637-9.66-4.637s-8.731,3.309-15.143,2-4.83,3.623,1.691,6.617l15.964,7.366C239.045,393.771,237.982,388.542,241.544,380.307Z" transform="translate(-169.176 -167.599)" fill="#263238"/>
      <path id="Path_23035" data-name="Path 23035" d="M289.469,405.629c0-.869-10.663-.06-10.663-.06s-6.472,6.738-12.812,8.308-2.741,5.349,4.371,5.265l17.582-.217C292.995,418.864,289.783,414.613,289.469,405.629Z" transform="translate(-158.788 -161.464)" fill="#263238"/>
      <path id="Path_23036" data-name="Path 23036" d="M357.3,298.246s-33.98-11.931-38.183-4.552a59.172,59.172,0,0,0-2.886,6.8c-.869,2.331-1.546,4.3-1.546,4.3h0l-2.789-1.28L300.52,337.48c18.113,10.047,43.677,11.206,54.158,4.069C372.115,329.642,357.3,298.246,357.3,298.246Z" transform="translate(-150.941 -185.112)" fill="#1550a2"/>
      <g id="Group_10222" data-name="Group 10222" transform="translate(149.579 106.174)" opacity="0.4">
        <path id="Path_23037" data-name="Path 23037" d="M357.3,298.246s-33.98-11.931-38.183-4.552a59.172,59.172,0,0,0-2.886,6.8c-.869,2.331-1.546,4.3-1.546,4.3h0l-2.789-1.28L300.52,337.48c18.113,10.047,43.677,11.206,54.158,4.069C372.115,329.642,357.3,298.246,357.3,298.246Z" transform="translate(-300.52 -291.286)" fill="#fff"/>
      </g>
      <path id="Path_23038" data-name="Path 23038" d="M312.25,303.209l19.6,8.32s-10.059-8.453-18.113-12.619C312.926,301.241,312.25,303.209,312.25,303.209Z" transform="translate(-148.507 -183.53)" opacity="0.3"/>
      <path id="Path_23039" data-name="Path 23039" d="M315.52,295.49l.688-8.38,37.977,5.048.5,8.091Z" transform="translate(-147.828 -185.979)" fill="#1550a2"/>
      <path id="Path_23040" data-name="Path 23040" d="M315.52,295.49l.688-8.38,37.977,5.048.5,8.091Z" transform="translate(-147.828 -185.979)" fill="#fff" opacity="0.4"/>
      <path id="Path_23041" data-name="Path 23041" d="M316.2,287.79l1.992.29-.616,6.533-1.642-.193Z" transform="translate(-147.743 -185.838)" fill="#263238"/>
      <path id="Path_23042" data-name="Path 23042" d="M319.464,288.25l21.41,3.115-.555,5.941-21.458-2.56Z" transform="translate(-147.135 -185.742)" fill="#263238"/>
      <path id="Path_23043" data-name="Path 23043" d="M349.481,298.293l-11.291-1.34.555-5.893h0l10.192,1.473Z" transform="translate(-143.123 -185.159)" fill="#263238"/>
      <path id="Path_23044" data-name="Path 23044" d="M316.2,287.79l1.992.29-.616,6.533-1.642-.193Z" transform="translate(-147.743 -185.838)" opacity="0.2"/>
      <path id="Path_23045" data-name="Path 23045" d="M319.464,288.25l21.41,3.115-.555,5.941-21.458-2.56Z" transform="translate(-147.135 -185.742)" opacity="0.2"/>
      <path id="Path_23046" data-name="Path 23046" d="M349.481,298.293l-11.291-1.34.555-5.893h0l10.192,1.473Z" transform="translate(-143.123 -185.159)" opacity="0.2"/>
      <path id="Path_23047" data-name="Path 23047" d="M330.1,296.9h-.229l-6.1-.809a1.727,1.727,0,0,1-1.147-.664,1.7,1.7,0,0,1-.35-1.28l.543-4.082a1.787,1.787,0,0,1,.664-1.208,1.739,1.739,0,0,1,1.28-.338l6.1.809a1.727,1.727,0,0,1,1.5,1.944l-.543,4.082A1.727,1.727,0,0,1,330.1,296.9Zm-5.567-7.149a.519.519,0,0,0-.314.109.556.556,0,0,0-.205.35l-.531,4.082a.5.5,0,0,0,.1.386.555.555,0,0,0,.35.205h0l6.1.809a.531.531,0,0,0,.592-.459l.543-4.082a.543.543,0,0,0-.109-.386.555.555,0,0,0-.35-.205l-6.1-.809Z" transform="translate(-146.43 -185.689)" fill="#fff"/>
      <path id="Path_23048" data-name="Path 23048" d="M329.473,293.047h-.1l-2.149-.35a.592.592,0,0,1-.5-.688.616.616,0,0,1,.688-.507l2.149.35a.606.606,0,0,1-.1,1.208Z" transform="translate(-145.503 -185.069)" fill="#fff"/>
      <path id="Path_23049" data-name="Path 23049" d="M310.655,299.46l3.164,1.666-10.735,36.492-4.5-.894Z" transform="translate(-151.344 -183.416)" fill="#1550a2"/>
      <path id="Path_23050" data-name="Path 23050" d="M310.655,299.46l3.164,1.666-10.735,36.492-4.5-.894Z" transform="translate(-151.344 -183.416)" fill="#fff" opacity="0.6"/>
      <path id="Path_23051" data-name="Path 23051" d="M312.031,275.71H285.465a2.065,2.065,0,0,1-2.017-1.86l-3.707-35.321a1.678,1.678,0,0,1,1.691-1.86H308a2.077,2.077,0,0,1,2.029,1.86l3.7,35.321a1.666,1.666,0,0,1-1.691,1.86Z" transform="translate(-155.256 -196.447)" fill="#263238"/>
      <path id="Path_23052" data-name="Path 23052" d="M312.031,275.71H285.465a2.065,2.065,0,0,1-2.017-1.86l-3.707-35.321a1.678,1.678,0,0,1,1.691-1.86H308a2.077,2.077,0,0,1,2.029,1.86l3.7,35.321a1.666,1.666,0,0,1-1.691,1.86Z" transform="translate(-155.256 -196.447)" fill="#fff" opacity="0.6"/>
      <path id="Path_23053" data-name="Path 23053" d="M310.927,275.71H285.436a2.065,2.065,0,0,1-2.017-1.86l-3.707-35.321a1.678,1.678,0,0,1,1.691-1.86h25.491a2.065,2.065,0,0,1,2.017,1.86l3.755,35.26a1.666,1.666,0,0,1-1.739,1.92Z" transform="translate(-155.262 -196.447)" fill="#fff" opacity="0.2"/>
      <path id="Path_23054" data-name="Path 23054" d="M293.163,250.39a2.6,2.6,0,0,0-2.62,2.886,3.2,3.2,0,0,0,3.127,2.9,2.608,2.608,0,0,0,2.62-2.9A3.212,3.212,0,0,1,293.163,250.39Z" transform="translate(-153.015 -193.6)" fill="#263238"/>
      <path id="Path_23055" data-name="Path 23055" d="M300.323,239.422H286.268a1.86,1.86,0,0,1-1.642-1.063l-.845-1.739h18.548l-.543,1.739a1.5,1.5,0,0,1-1.461,1.063Z" transform="translate(-154.416 -196.458)" opacity="0.3"/>
      <path id="Path_23056" data-name="Path 23056" d="M356.621,318.452h-4.939s-6.171-18.524-9.769-34.222a113.892,113.892,0,0,1-2.306-12.595,36.106,36.106,0,0,1,1.208-13.983,35.019,35.019,0,0,1,6.255-12.341l-1-.06c9.346-.1,14.394,3.14,15.022,8.96s-9.66,40.356-10.192,44.969S356.621,318.452,356.621,318.452Z" transform="translate(-142.874 -194.667)" fill="#1550a2"/>
      <path id="Path_23057" data-name="Path 23057" d="M330.086,244.71s-9.89,15.577-12.534,22.195-1.123,25.576-1.123,25.576-5.06-22.811-1.811-34.113S323.5,244.746,330.086,244.71Z" transform="translate(-148.241 -194.779)" fill="#1550a2"/>
      <path id="Path_23058" data-name="Path 23058" d="M364.03,257.955c-5.2,7.463-17.63,24.984-28.329,20.878-5.639-2.572-9.66-7.245-13.392-11.774a96.264,96.264,0,0,1-8.706-13.017,3.007,3.007,0,0,1,4.83-3.562c3.429,3.562,7,7.137,10.566,10.445,3.1,2.8,7.088,6.448,10.687,7.764a2.294,2.294,0,0,0-.8-.205c-.205,0-.157,0,0-.133,6.038-4.13,10.675-11.23,15.155-17.135,4.661-6.436,14.213,0,10.011,6.738Z" transform="translate(-148.326 -193.98)" fill="#e9b376"/>
      <path id="Path_23059" data-name="Path 23059" d="M357.274,261.978s-8.694,14.829-15.36,21.12a113.892,113.892,0,0,1-2.306-12.595,36.106,36.106,0,0,1,1.208-13.983l6.883-5.675C351.115,248.031,357.274,261.978,357.274,261.978Z" transform="translate(-142.874 -193.583)" opacity="0.2"/>
      <path id="Path_23060" data-name="Path 23060" d="M361.121,248.859c4.552,2.415,3.176,9.02-2.789,16.821S341.571,284.022,335.9,282.1s-12.075-9.467-12.075-9.467l4.142-11.689s8.127,6.171,9.817,5.857,9.974-11.037,12.365-14.358S356.182,246.19,361.121,248.859Z" transform="translate(-146.106 -194.133)" fill="#1550a2"/>
      <path id="Path_23061" data-name="Path 23061" d="M285.389,249.808l-.169,2.318a2.657,2.657,0,0,1-2.258,2.415l-3.152.471.749-8.453,2.632.459A2.645,2.645,0,0,1,285.389,249.808Z" transform="translate(-155.24 -194.395)" fill="#ffb573"/>
    </g>
  </g>
</svg>
